<svg width="56" height="57" viewBox="0 0 56 57" fill="none" xmlns="http://www.w3.org/2000/svg">
<rect x="4" y="4.5" width="48" height="48" rx="24" fill="#DFF3EC"/>
<rect x="4" y="4.5" width="48" height="48" rx="24" stroke="#EAF8F2" stroke-width="8"/>
<g clip-path="url(#clip0_457_22237)">
<path d="M38.1445 16.6123C38.2531 16.6795 38.3428 16.7733 38.405 16.8849C38.4673 16.9965 38.4999 17.1221 38.5 17.2498V39.7498C38.5 39.9487 38.421 40.1395 38.2803 40.2802C38.1397 40.4208 37.9489 40.4998 37.75 40.4998H33.25C33.0511 40.4998 32.8603 40.4208 32.7197 40.2802C32.579 40.1395 32.5 39.9487 32.5 39.7498V37.4998H31V39.7498C31 39.9487 30.921 40.1395 30.7803 40.2802C30.6397 40.4208 30.4489 40.4998 30.25 40.4998H16.75C16.5511 40.4998 16.3603 40.4208 16.2197 40.2802C16.079 40.1395 16 39.9487 16 39.7498V31.4998C16.0001 31.3425 16.0497 31.1892 16.1418 31.0616C16.2339 30.934 16.3637 30.8385 16.513 30.7888L25 27.9598V23.2498C25 23.1107 25.0387 22.9742 25.1118 22.8558C25.185 22.7374 25.2896 22.6417 25.414 22.5793L37.414 16.5793C37.5285 16.522 37.6557 16.495 37.7835 16.5008C37.9114 16.5065 38.0357 16.5449 38.1445 16.6123ZM25 29.5408L17.5 32.0398V38.9998H25V29.5408ZM26.5 38.9998H29.5V36.7498C29.5 36.5509 29.579 36.3601 29.7197 36.2195C29.8603 36.0788 30.0511 35.9998 30.25 35.9998H33.25C33.4489 35.9998 33.6397 36.0788 33.7803 36.2195C33.921 36.3601 34 36.5509 34 36.7498V38.9998H37V18.4633L26.5 23.7133V38.9998Z" fill="#017544"/>
<path d="M19 33H20.5V34.5H19V33ZM22 33H23.5V34.5H22V33ZM19 36H20.5V37.5H19V36ZM22 36H23.5V37.5H22V36ZM28 30H29.5V31.5H28V30ZM31 30H32.5V31.5H31V30ZM28 33H29.5V34.5H28V33ZM31 33H32.5V34.5H31V33ZM34 30H35.5V31.5H34V30ZM34 33H35.5V34.5H34V33ZM28 27H29.5V28.5H28V27ZM31 27H32.5V28.5H31V27ZM34 27H35.5V28.5H34V27ZM28 24H29.5V25.5H28V24ZM31 24H32.5V25.5H31V24ZM34 24H35.5V25.5H34V24ZM34 21H35.5V22.5H34V21Z" fill="#017544"/>
</g>
<defs>
<clipPath id="clip0_457_22237">
<rect width="24" height="24" fill="white" transform="translate(16 16.5)"/>
</clipPath>
</defs>
</svg>
