<svg width="52" height="52" viewBox="0 0 52 52" fill="none" xmlns="http://www.w3.org/2000/svg">
<g filter="url(#filter0_dii_477_23646)">
<rect x="2" y="1" width="48" height="48" rx="10" fill="#7F56D9"/>
<rect x="3" y="2" width="46" height="46" rx="9" stroke="url(#paint0_linear_477_23646)" stroke-width="2"/>
<path d="M21 24H23V26H21V24ZM21 28H23V30H21V28ZM25 24H27V26H25V24ZM25 28H27V30H25V28ZM29 24H31V26H29V24ZM29 28H31V30H29V28Z" fill="white"/>
<path d="M19 35H33C34.103 35 35 34.103 35 33V19C35 17.897 34.103 17 33 17H31V15H29V17H23V15H21V17H19C17.897 17 17 17.897 17 19V33C17 34.103 17.897 35 19 35ZM33 21L33.001 33H19V21H33Z" fill="white"/>
</g>
<defs>
<filter id="filter0_dii_477_23646" x="0" y="0" width="52" height="52" filterUnits="userSpaceOnUse" color-interpolation-filters="sRGB">
<feFlood flood-opacity="0" result="BackgroundImageFix"/>
<feColorMatrix in="SourceAlpha" type="matrix" values="0 0 0 0 0 0 0 0 0 0 0 0 0 0 0 0 0 0 127 0" result="hardAlpha"/>
<feOffset dy="1"/>
<feGaussianBlur stdDeviation="1"/>
<feColorMatrix type="matrix" values="0 0 0 0 0.0392157 0 0 0 0 0.0509804 0 0 0 0 0.0705882 0 0 0 0.05 0"/>
<feBlend mode="normal" in2="BackgroundImageFix" result="effect1_dropShadow_477_23646"/>
<feBlend mode="normal" in="SourceGraphic" in2="effect1_dropShadow_477_23646" result="shape"/>
<feColorMatrix in="SourceAlpha" type="matrix" values="0 0 0 0 0 0 0 0 0 0 0 0 0 0 0 0 0 0 127 0" result="hardAlpha"/>
<feOffset dy="-2"/>
<feComposite in2="hardAlpha" operator="arithmetic" k2="-1" k3="1"/>
<feColorMatrix type="matrix" values="0 0 0 0 0.0392157 0 0 0 0 0.0496732 0 0 0 0 0.0705882 0 0 0 0.05 0"/>
<feBlend mode="normal" in2="shape" result="effect2_innerShadow_477_23646"/>
<feColorMatrix in="SourceAlpha" type="matrix" values="0 0 0 0 0 0 0 0 0 0 0 0 0 0 0 0 0 0 127 0" result="hardAlpha"/>
<feMorphology radius="1" operator="erode" in="SourceAlpha" result="effect3_innerShadow_477_23646"/>
<feOffset/>
<feComposite in2="hardAlpha" operator="arithmetic" k2="-1" k3="1"/>
<feColorMatrix type="matrix" values="0 0 0 0 0.0392157 0 0 0 0 0.0496732 0 0 0 0 0.0705882 0 0 0 0.18 0"/>
<feBlend mode="normal" in2="effect2_innerShadow_477_23646" result="effect3_innerShadow_477_23646"/>
</filter>
<linearGradient id="paint0_linear_477_23646" x1="26" y1="1" x2="26" y2="49" gradientUnits="userSpaceOnUse">
<stop stop-color="white" stop-opacity="0.12"/>
<stop offset="1" stop-color="white" stop-opacity="0"/>
</linearGradient>
</defs>
</svg>
