<svg width="575" height="475" viewBox="0 0 575 475" fill="none" xmlns="http://www.w3.org/2000/svg">
<path d="M497.52 435.368H93.7363C93.2855 435.368 92.9175 435.002 92.9175 434.548C92.9175 434.097 93.2832 433.728 93.7363 433.728H497.52C497.97 433.728 498.338 434.094 498.338 434.548C498.338 435 497.973 435.368 497.52 435.368Z" fill="#030047"/>
<path d="M479.799 142.938H111.458V434.548H479.799V142.938Z" fill="white"/>
<path d="M480.617 435.368H110.639V142.118H480.615V435.368H480.617ZM112.276 433.728H478.979V143.759H112.276V433.728Z" fill="#030047"/>
<path d="M479.799 145.544H111.458V133.27C111.458 120.587 121.723 110.304 134.385 110.304H456.872C469.534 110.304 479.799 120.587 479.799 133.27V145.544Z" fill="#E6F3FC"/>
<path d="M480.617 146.362H110.639V133.271C110.639 120.154 121.29 109.484 134.384 109.484H456.872C469.963 109.484 480.617 120.154 480.617 133.271V146.362ZM112.276 144.724H478.979V133.271C478.979 121.059 469.062 111.124 456.872 111.124H134.384C122.194 111.124 112.276 121.059 112.276 133.271V144.724Z" fill="#030047"/>
<path d="M128.099 132.665C130.713 132.665 132.832 130.542 132.832 127.923C132.832 125.304 130.713 123.181 128.099 123.181C125.484 123.181 123.365 125.304 123.365 127.923C123.365 130.542 125.484 132.665 128.099 132.665Z" fill="white"/>
<path d="M141.144 132.665C143.758 132.665 145.877 130.542 145.877 127.923C145.877 125.304 143.758 123.181 141.144 123.181C138.53 123.181 136.41 125.304 136.41 127.923C136.41 130.542 138.53 132.665 141.144 132.665Z" fill="white"/>
<path d="M154.19 132.665C156.804 132.665 158.923 130.542 158.923 127.923C158.923 125.304 156.804 123.181 154.19 123.181C151.576 123.181 149.457 125.304 149.457 127.923C149.457 130.542 151.576 132.665 154.19 132.665Z" fill="white"/>
<path d="M300.32 303.498L342.367 299.36C352.753 298.337 362.16 305.542 363.897 315.853L383.898 434.548H230.817V320.293C230.817 308.807 240.495 299.706 251.935 300.432L300.32 303.498Z" fill="#605EFD"/>
<path d="M230.816 435.368C230.365 435.368 229.997 435.002 229.997 434.548V320.293C229.997 319.841 230.363 319.472 230.816 319.472C231.269 319.472 231.635 319.839 231.635 320.293V434.548C231.635 435 231.267 435.368 230.816 435.368Z" fill="#030047"/>
<path d="M377.035 394.649C376.642 394.649 376.297 394.365 376.23 393.965L363.09 315.989C363.014 315.542 363.315 315.12 363.759 315.044C364.196 314.97 364.626 315.27 364.702 315.717L377.842 393.693C377.918 394.14 377.617 394.561 377.173 394.637C377.127 394.644 377.081 394.649 377.035 394.649Z" fill="#030047"/>
<path d="M189.753 230.854H189.698L182.954 311.097L210.825 301.685L222.96 348.234L171.778 365.157C166.813 366.807 161.672 366.894 156.893 365.671C149.832 363.867 143.578 359.166 139.967 352.321C137.271 347.204 136.322 341.345 137.239 335.638L148.348 232.755L145.892 181.997C145.74 179.483 147.299 177.045 149.733 176.432C153.006 175.624 156.03 177.951 156.226 181.167C156.062 178.303 155.692 172.333 160.886 172.432C163.767 172.488 166.21 174.444 166.396 177.299L166.07 172.073C165.874 168.628 169.048 165.776 172.717 166.76C174.856 167.317 176.307 169.264 176.427 171.451V171.483L176.689 175.944C176.951 172.762 180.235 170.324 183.706 171.472C185.659 172.128 186.991 173.985 187.11 176.064L187.122 176.075L188.856 207.56" fill="white"/>
<path d="M163.473 367.323C161.2 367.323 158.923 367.037 156.69 366.466C149.208 364.553 142.849 359.54 139.242 352.706C136.487 347.478 135.489 341.37 136.429 335.511L147.527 232.732L145.075 182.038C144.893 179.08 146.812 176.324 149.535 175.64C151.315 175.2 153.16 175.559 154.604 176.621C154.896 176.835 155.165 177.075 155.409 177.333C155.57 175.746 156.014 174.156 157.09 173.036C158.026 172.061 159.314 171.589 160.901 171.614C162.654 171.647 164.202 172.276 165.327 173.303L165.253 172.124C165.143 170.188 165.971 168.306 167.466 167.087C168.981 165.85 170.971 165.444 172.926 165.967C175.362 166.601 177.098 168.787 177.243 171.405L177.305 172.495C177.668 172.073 178.089 171.697 178.563 171.384C180.148 170.333 182.112 170.082 183.961 170.693C186.158 171.43 187.736 173.513 187.917 175.9C187.929 175.944 187.933 175.985 187.936 176.029L189.672 207.514C189.697 207.965 189.352 208.353 188.899 208.378C188.49 208.392 188.062 208.058 188.037 207.604L186.307 176.229C186.298 176.19 186.293 176.149 186.291 176.11C186.19 174.338 185.045 172.787 183.444 172.248C182.059 171.792 180.647 171.969 179.467 172.75C178.345 173.495 177.609 174.713 177.503 176.008C177.466 176.437 177.1 176.764 176.677 176.762C176.247 176.757 175.895 176.418 175.87 175.99L175.608 171.529C175.504 169.591 174.258 168.009 172.51 167.552C171.063 167.165 169.602 167.458 168.498 168.359C167.408 169.248 166.806 170.617 166.886 172.025L167.213 177.241C167.213 177.241 167.213 177.243 167.213 177.246V177.248C167.243 177.699 166.9 178.089 166.449 178.116C165.998 178.144 165.61 177.803 165.58 177.352V177.349V177.347C165.426 175.022 163.448 173.301 160.872 173.253C159.731 173.216 158.884 173.531 158.268 174.172C156.736 175.764 156.934 179.215 157.04 181.07C157.04 181.077 157.04 181.082 157.04 181.089C157.04 181.098 157.04 181.109 157.042 181.119H157.04C157.04 181.552 156.706 181.937 156.272 181.962C155.789 181.994 155.434 181.669 155.407 181.22C155.407 181.22 155.407 181.218 155.407 181.215V181.213C155.326 179.904 154.68 178.713 153.631 177.944C152.566 177.158 151.251 176.905 149.926 177.232C147.957 177.727 146.572 179.757 146.706 181.95L149.162 232.72C149.165 232.764 149.162 232.805 149.16 232.847L138.051 335.73C137.161 341.285 138.099 347.026 140.689 351.941C144.079 358.365 150.059 363.081 157.095 364.878C161.87 366.102 166.861 365.929 171.521 364.381L221.976 347.699L210.255 302.745L183.214 311.876C182.952 311.963 182.664 311.915 182.448 311.744C182.232 311.574 182.114 311.307 182.137 311.03L188.881 230.787C188.915 230.363 189.272 230.036 189.695 230.036C190.146 230.036 190.542 230.402 190.542 230.856C190.542 230.958 190.525 231.054 190.493 231.144L183.872 309.922L210.563 300.909C210.779 300.837 211.014 300.856 211.214 300.964C211.414 301.072 211.559 301.259 211.616 301.478L223.751 348.026C223.859 348.446 223.627 348.877 223.215 349.012L172.033 365.936C169.257 366.86 166.369 367.323 163.473 367.323Z" fill="#030047"/>
<path d="M167.15 190.876C166.72 190.876 166.361 190.542 166.334 190.104L165.568 177.333C165.54 176.882 165.885 176.492 166.336 176.467C166.771 176.43 167.173 176.782 167.203 177.236L167.969 190.008C167.997 190.459 167.652 190.849 167.201 190.874C167.182 190.876 167.166 190.876 167.15 190.876Z" fill="#030047"/>
<path d="M177.491 190.254C177.061 190.254 176.702 189.92 176.675 189.482L175.865 175.985C175.837 175.534 176.182 175.144 176.633 175.119C177.068 175.087 177.473 175.435 177.5 175.889L178.31 189.386C178.338 189.837 177.993 190.227 177.542 190.252C177.523 190.254 177.507 190.254 177.491 190.254Z" fill="#030047"/>
<path d="M156.798 191.498C156.368 191.498 156.009 191.164 155.981 190.727L155.218 177.976C155.19 177.524 155.535 177.135 155.986 177.11C156.416 177.073 156.823 177.425 156.853 177.879L157.617 190.63C157.644 191.081 157.299 191.471 156.848 191.496C156.83 191.498 156.814 191.498 156.798 191.498Z" fill="#030047"/>
<path d="M270.151 301.526C270.151 301.526 237.084 295.925 229.673 299.264L201.823 301.512L206.271 362.427L249.626 353.241C256.958 351.019 262.425 344.863 263.771 337.308L270.151 301.526Z" fill="#605EFD"/>
<path d="M206.271 363.247C206.096 363.247 205.922 363.189 205.779 363.083C205.59 362.941 205.473 362.724 205.455 362.487L201.006 301.572C200.974 301.123 201.31 300.731 201.756 300.694L229.607 298.443C230.046 298.409 230.451 298.743 230.49 299.194C230.527 299.646 230.191 300.04 229.74 300.077L202.699 302.261L207.019 361.427L249.456 352.434C249.895 352.344 250.332 352.623 250.427 353.068C250.521 353.51 250.238 353.946 249.796 354.04L206.441 363.226C206.384 363.242 206.329 363.247 206.271 363.247Z" fill="#030047"/>
<path d="M180.603 321.127C180.537 321.127 180.468 321.12 180.399 321.101C179.962 320.988 179.697 320.544 179.808 320.104L182.156 310.899C182.269 310.459 182.715 310.192 183.152 310.307C183.589 310.42 183.853 310.864 183.743 311.304L181.395 320.509C181.3 320.88 180.967 321.127 180.603 321.127Z" fill="#030047"/>
<path d="M391.143 207.491L389.155 176.018L389.167 176.006C389.047 173.93 390.149 171.928 392.005 171.043C395.322 169.502 398.871 171.534 399.503 174.661L399.241 170.2V170.168C399.098 167.981 400.31 165.871 402.374 165.073C405.899 163.663 409.379 166.124 409.598 169.566L409.872 174.518C409.872 171.797 412.031 169.686 414.782 169.304C419.759 168.615 420.238 174.179 420.424 177.142C420.424 174.048 423.087 171.555 426.328 171.96C428.817 172.287 430.661 174.518 430.802 177.034L434.153 225.29L434.327 225.278L450.184 335.64C451.101 341.347 450.151 347.206 447.456 352.324C443.845 359.167 437.6 363.869 430.53 365.673C425.751 366.897 420.61 366.809 415.645 365.159L364.463 348.236L376.597 301.687L404.469 311.1L392.454 228.921" fill="white"/>
<path d="M423.948 367.323C421.052 367.323 418.163 366.86 415.383 365.936L364.201 349.013C363.791 348.877 363.557 348.446 363.665 348.026L375.802 301.478C375.859 301.259 376.007 301.072 376.204 300.964C376.405 300.856 376.639 300.837 376.855 300.909L403.462 309.894L391.64 229.041C391.575 228.591 391.884 228.177 392.332 228.11C392.774 228.045 393.195 228.354 393.261 228.801L405.276 310.98C405.318 311.263 405.21 311.546 404.991 311.728C404.773 311.91 404.474 311.966 404.205 311.876L377.166 302.745L365.445 347.699L415.898 364.381C420.56 365.931 425.546 366.102 430.326 364.878C437.359 363.083 443.337 358.367 446.732 351.941C449.321 347.024 450.26 341.283 449.377 335.771L433.587 225.884C433.445 225.748 433.35 225.559 433.336 225.347L429.988 177.091C429.863 174.893 428.244 173.041 426.223 172.773C424.928 172.612 423.683 172.988 422.729 173.833C421.786 174.667 421.245 175.875 421.245 177.144C421.245 177.587 420.896 177.951 420.452 177.964C420.033 177.976 419.638 177.637 419.61 177.197C419.507 175.548 419.29 172.119 417.586 170.723C416.901 170.163 416.024 169.965 414.895 170.119C412.459 170.458 410.691 172.31 410.691 174.522C410.691 174.967 410.339 175.329 409.895 175.342C409.483 175.375 409.081 175.013 409.055 174.568L408.782 169.615C408.694 168.209 407.928 166.917 406.739 166.163C405.541 165.405 404.06 165.285 402.68 165.838C400.987 166.495 399.938 168.214 400.062 170.119L400.325 174.617C400.35 175.048 400.039 175.423 399.612 175.478C399.186 175.534 398.79 175.25 398.703 174.829C398.445 173.559 397.576 172.437 396.375 171.829C395.11 171.188 393.682 171.174 392.35 171.792C390.837 172.515 389.885 174.193 389.986 175.965C389.988 176.008 389.986 176.052 389.984 176.096L391.962 207.445C391.992 207.896 391.649 208.286 391.196 208.316C390.784 208.348 390.356 208.002 390.329 207.548L388.342 176.075C388.339 176.024 388.339 175.974 388.344 175.925C388.259 173.545 389.577 171.299 391.654 170.308C393.429 169.483 395.416 169.506 397.111 170.366C397.62 170.624 398.08 170.942 398.485 171.31L398.422 170.255C398.252 167.603 399.72 165.228 402.075 164.315C403.94 163.569 405.96 163.737 407.609 164.781C409.239 165.813 410.288 167.585 410.41 169.52L410.477 170.718C411.482 169.552 412.949 168.737 414.665 168.497C416.245 168.278 417.575 168.601 418.616 169.456C419.815 170.437 420.447 171.999 420.792 173.534C421.038 173.2 421.324 172.889 421.639 172.61C422.952 171.449 424.649 170.93 426.425 171.154C429.217 171.522 431.448 174.031 431.616 176.994L434.93 224.734C435.036 224.852 435.11 225.002 435.135 225.168L450.991 335.529C451.93 341.375 450.931 347.483 448.176 352.711C444.567 359.547 438.208 364.563 430.728 366.47C428.497 367.037 426.22 367.323 423.948 367.323Z" fill="#030047"/>
<path d="M410.637 188.369C410.207 188.369 409.846 188.033 409.821 187.598L409.08 174.824C409.055 174.372 409.4 173.985 409.85 173.958C410.327 173.932 410.69 174.276 410.715 174.73L411.456 187.503C411.481 187.955 411.136 188.342 410.685 188.369C410.669 188.369 410.653 188.369 410.637 188.369Z" fill="#030047"/>
<path d="M400.297 188.973C399.867 188.973 399.505 188.637 399.48 188.201L398.696 174.702C398.671 174.25 399.016 173.863 399.466 173.836C399.931 173.799 400.304 174.154 400.331 174.607L401.115 188.107C401.141 188.558 400.796 188.946 400.345 188.973C400.329 188.973 400.313 188.973 400.297 188.973Z" fill="#030047"/>
<path d="M420.989 187.766C420.559 187.766 420.198 187.429 420.173 186.994L419.432 174.241C419.407 173.789 419.752 173.402 420.203 173.375C420.688 173.338 421.042 173.693 421.068 174.147L421.808 186.9C421.834 187.351 421.489 187.738 421.038 187.766C421.022 187.766 421.006 187.766 420.989 187.766Z" fill="#030047"/>
<path d="M317.271 301.526C317.271 301.526 350.338 295.925 357.749 299.264L385.6 301.512L381.152 362.427L337.797 353.241C330.464 351.019 324.997 344.863 323.652 337.308L317.271 301.526Z" fill="#605EFD"/>
<path d="M381.151 363.247C381.093 363.247 381.038 363.24 380.981 363.229L337.626 354.042C337.184 353.948 336.901 353.512 336.995 353.07C337.087 352.625 337.52 352.349 337.966 352.436L380.403 361.429L384.725 302.263L357.684 300.079C357.233 300.042 356.897 299.648 356.934 299.197C356.971 298.745 357.38 298.409 357.817 298.446L385.668 300.697C386.117 300.733 386.452 301.125 386.418 301.574L381.967 362.489C381.951 362.724 381.832 362.943 381.643 363.086C381.5 363.192 381.328 363.247 381.151 363.247Z" fill="#030047"/>
<path d="M406.82 321.127C406.457 321.127 406.123 320.88 406.029 320.509L403.683 311.304C403.57 310.867 403.835 310.42 404.274 310.307C404.715 310.192 405.157 310.459 405.27 310.899L407.616 320.104C407.728 320.541 407.464 320.988 407.025 321.101C406.956 321.12 406.889 321.127 406.82 321.127Z" fill="#030047"/>
<path d="M452.503 207.076H143.611C142.168 207.076 141 205.905 141 204.461V92.6151C141 91.1705 142.168 90 143.611 90H452.503C453.945 90 455.113 91.1705 455.113 92.6151V204.461C455.113 205.905 453.945 207.076 452.503 207.076Z" fill="#FFCC3D"/>
<path d="M392.451 228.918C391.612 226.743 389.604 223.103 385.064 220.884L377.315 216.785C375.765 215.954 374.652 214.622 374.074 213.057C373.573 211.691 373.506 210.161 373.932 208.696C375.089 204.772 379.378 202.682 383.187 204.247L405.456 214.762" fill="white"/>
<path d="M392.451 229.739C392.122 229.739 391.812 229.541 391.688 229.213C390.945 227.289 389.05 223.744 384.705 221.619L376.933 217.509C375.256 216.61 373.968 215.131 373.306 213.341C372.738 211.795 372.68 210.064 373.145 208.465C373.764 206.362 375.25 204.615 377.218 203.668C379.185 202.721 381.473 202.657 383.493 203.486L405.8 214.02C406.21 214.214 406.385 214.702 406.194 215.113C406.001 215.52 405.513 215.7 405.104 215.504L382.835 204.989C381.255 204.341 379.498 204.392 377.927 205.148C376.374 205.894 375.204 207.272 374.716 208.929C374.35 210.191 374.394 211.557 374.84 212.776C375.362 214.189 376.379 215.357 377.699 216.064L385.443 220.163C390.266 222.52 392.382 226.478 393.21 228.628C393.374 229.05 393.164 229.524 392.743 229.688C392.649 229.72 392.55 229.739 392.451 229.739Z" fill="#030047"/>
<path d="M178.602 212.249L196.376 203.392C199.967 201.392 204.475 202.954 206.089 206.714C206.678 208.124 206.798 209.654 206.46 211.064C206.066 212.682 205.116 214.147 203.677 215.154L196.464 220.14C190.09 224.251 189.752 230.854 189.752 230.854" fill="white"/>
<path d="M189.752 231.674C189.738 231.674 189.722 231.674 189.708 231.674C189.257 231.651 188.908 231.266 188.933 230.812C188.947 230.527 189.37 223.739 196.019 219.451L203.211 214.481C204.433 213.627 205.307 212.345 205.663 210.873C205.962 209.624 205.845 208.26 205.332 207.032C204.654 205.452 203.324 204.221 201.693 203.666C200.042 203.104 198.294 203.261 196.771 204.111L178.965 212.986C178.56 213.189 178.068 213.023 177.868 212.617C177.665 212.212 177.831 211.721 178.236 211.518L196.01 202.662C197.882 201.618 200.159 201.413 202.222 202.115C204.292 202.823 205.974 204.38 206.839 206.394C207.489 207.949 207.634 209.675 207.255 211.26C206.802 213.124 205.698 214.746 204.143 215.829L196.926 220.817C190.952 224.67 190.571 230.835 190.566 230.898C190.548 231.333 190.187 231.674 189.752 231.674Z" fill="#030047"/>
<path d="M316.466 301.895C316.515 312.118 274.728 312.314 274.68 302.091L279.188 258.187L315.082 265.675L316.466 301.895Z" fill="white"/>
<path d="M295.299 310.482C289.86 310.482 284.788 309.814 280.986 308.593C275.114 306.708 273.87 304.019 273.861 302.095L278.371 258.104C278.394 257.873 278.516 257.664 278.702 257.526C278.889 257.39 279.125 257.339 279.353 257.385L315.247 264.873C315.615 264.949 315.884 265.267 315.898 265.645L317.285 301.865C317.285 301.874 317.285 301.883 317.285 301.892C317.294 303.816 316.075 306.514 310.221 308.457C306.357 309.738 301.171 310.456 295.614 310.482C295.508 310.482 295.403 310.482 295.299 310.482ZM279.907 259.175L275.494 302.176C275.517 305.991 284.116 308.89 295.605 308.841C300.996 308.816 306.003 308.127 309.709 306.899C311.928 306.164 315.649 304.537 315.649 301.913L314.288 266.35L279.907 259.175Z" fill="#030047"/>
<path d="M279.088 272.043C262.889 259.507 256.488 238.87 256.488 238.87L287.913 204.645C289.075 204.989 316.537 204.977 331.53 232.835C343.817 255.664 330.962 275.633 300.706 279.672" fill="white"/>
<path d="M300.704 280.492C300.299 280.492 299.947 280.193 299.894 279.78C299.834 279.331 300.149 278.919 300.598 278.859C316.371 276.753 327.779 270.251 332.722 260.551C336.793 252.56 336.133 243.109 330.813 233.225C322.116 217.066 307.164 207.244 288.709 205.562C288.511 205.544 288.355 205.53 288.226 205.516L257.417 239.068C258.459 242.121 265.09 260.173 279.589 271.394C279.946 271.67 280.013 272.186 279.737 272.543C279.461 272.903 278.948 272.97 278.589 272.691C262.374 260.141 255.773 239.319 255.711 239.112C255.624 238.833 255.692 238.529 255.89 238.312L287.315 204.088C287.527 203.857 287.851 203.77 288.15 203.857C288.237 203.873 288.488 203.894 288.861 203.926C307.88 205.659 323.289 215.785 332.257 232.444C337.844 242.826 338.511 252.802 334.185 261.295C328.991 271.488 317.142 278.303 300.819 280.483C300.777 280.49 300.74 280.492 300.704 280.492Z" fill="#030047"/>
<path d="M321.524 205.551C321.524 224.621 278.093 233.303 278.093 233.303C275.31 236.987 280.963 247.176 278.836 251.067C276.697 254.959 275.572 252.991 275.572 252.991L266.777 263.617C266.777 263.617 242.627 252.97 244.154 239.349C245.693 225.727 256.694 224.197 256.694 224.197C256.694 224.197 246.413 215.179 251.052 208.576C254.423 203.788 262.793 203.023 267.138 202.979C265.01 202.489 267.899 191.411 276.124 188.158C298.31 179.377 321.524 175.52 321.524 205.551Z" fill="#030047"/>
<path d="M301.104 237.197C298.71 237.722 296.849 239.8 296.38 242.471L301.104 237.197Z" fill="white"/>
<path d="M296.383 243.289C296.337 243.289 296.288 243.284 296.24 243.277C295.794 243.199 295.497 242.775 295.575 242.328C296.102 239.321 298.204 236.994 300.93 236.395C301.367 236.296 301.808 236.577 301.905 237.02C302.002 237.462 301.723 237.9 301.279 237.996C299.205 238.453 297.597 240.264 297.185 242.611C297.116 243.01 296.771 243.289 296.383 243.289Z" fill="#030047"/>
<path d="M316.356 232.888C317.547 234.358 319.323 234.902 320.318 234.093C321.303 233.289 321.133 231.434 319.927 229.962C318.722 228.488 316.944 227.944 315.96 228.748C314.971 229.568 315.15 231.416 316.356 232.888Z" fill="#030047"/>
<path d="M301.5 245.466C302.705 246.938 304.476 247.473 305.472 246.664C306.458 245.86 306.277 244.012 305.081 242.533C303.875 241.061 302.098 240.517 301.109 241.335C300.124 242.139 300.304 243.989 301.5 245.466Z" fill="#030047"/>
<path d="M315.953 224.621C313.559 225.147 311.699 227.225 311.229 229.895L315.953 224.621Z" fill="white"/>
<path d="M311.231 230.716C311.185 230.716 311.137 230.711 311.089 230.704C310.642 230.626 310.346 230.202 310.424 229.755C310.951 226.748 313.053 224.421 315.778 223.822C316.213 223.721 316.657 224.004 316.753 224.446C316.85 224.889 316.572 225.326 316.128 225.423C314.053 225.879 312.446 227.69 312.034 230.038C311.965 230.435 311.62 230.716 311.231 230.716Z" fill="#030047"/>
<path d="M276.204 253.016C276.204 253.016 261.845 248.745 257.629 253.424C253.413 258.104 265.341 275.449 272.469 273.813C279.597 272.177 283.251 267.014 283.251 267.014" fill="white"/>
<path d="M271.487 274.744C267.119 274.744 261.873 269.672 258.665 264.2C255.741 259.212 255.127 254.977 257.02 252.876C261.528 247.869 275.827 252.051 276.437 252.231C276.869 252.36 277.118 252.816 276.989 253.249C276.86 253.682 276.407 253.929 275.97 253.802C272.115 252.657 261.411 250.452 258.237 253.973C256.887 255.47 257.609 259.159 260.077 263.369C263.237 268.762 268.69 273.841 272.285 273.013C279.001 271.472 282.55 266.587 282.585 266.537C282.847 266.168 283.357 266.083 283.725 266.345C284.093 266.608 284.181 267.117 283.919 267.488C283.762 267.709 279.997 272.926 272.651 274.612C272.271 274.702 271.883 274.744 271.487 274.744Z" fill="#030047"/>
<path d="M268.529 265.539C268.359 265.539 268.187 265.486 268.039 265.375C266.825 264.463 265.785 263.281 265.033 261.959C264.392 260.834 264.238 259.88 264.564 259.042C264.84 258.337 265.48 257.765 266.275 257.509C266.857 257.323 267.515 257.293 268.281 257.415C269.252 257.572 270.201 257.938 271.027 258.47C271.407 258.717 271.515 259.224 271.271 259.604C271.025 259.984 270.521 260.095 270.139 259.848C269.502 259.436 268.771 259.155 268.023 259.035C267.517 258.954 267.108 258.966 266.777 259.072C266.45 259.175 266.188 259.394 266.094 259.638C265.963 259.979 266.084 260.489 266.459 261.148C267.101 262.276 267.989 263.286 269.026 264.064C269.387 264.336 269.461 264.85 269.189 265.212C269.024 265.426 268.78 265.539 268.529 265.539Z" fill="#030047"/>
<path d="M313.29 239.54C315.139 241.575 316.986 243.609 318.835 245.641C319.951 246.867 321.094 248.15 321.439 249.724C321.784 251.3 321.082 253.258 319.341 254.106" fill="white"/>
<path d="M319.341 254.929C319.037 254.929 318.745 254.758 318.603 254.468C318.405 254.06 318.575 253.569 318.98 253.371C320.397 252.68 320.891 251.067 320.638 249.901C320.335 248.512 319.214 247.279 318.228 246.194L312.682 240.093C312.379 239.759 312.402 239.241 312.738 238.934C313.071 238.63 313.589 238.653 313.895 238.989L319.44 245.091C320.565 246.328 321.839 247.731 322.237 249.551C322.635 251.374 321.889 253.777 319.697 254.846C319.582 254.901 319.461 254.929 319.341 254.929Z" fill="#030047"/>
<path d="M310.667 264.91C310.141 264.91 309.614 264.857 309.099 264.751C307.268 264.369 305.573 263.29 304.446 261.795C304.174 261.433 304.246 260.919 304.607 260.648C304.97 260.376 305.483 260.449 305.755 260.809C306.642 261.993 307.983 262.843 309.432 263.147C310.879 263.449 312.45 263.205 313.738 262.477C314.131 262.253 314.63 262.394 314.853 262.788C315.074 263.182 314.936 263.682 314.543 263.905C313.374 264.564 312.02 264.91 310.667 264.91Z" fill="#030047"/>
<path d="M77.4778 318.719C77.3812 318.719 77.2823 318.703 77.188 318.666C71.8543 316.634 67.3946 312.507 64.9543 307.339C62.8705 302.932 62.3024 297.863 63.3075 293.102C61.8884 291.974 60.6648 290.351 59.6574 288.259C56.4558 281.621 56.8491 273.255 60.6579 266.945C60.8902 266.558 61.3916 266.431 61.7826 266.668C62.169 266.903 62.2932 267.405 62.0586 267.795C58.5281 273.642 58.1647 281.396 61.1317 287.547C61.8907 289.121 62.7716 290.384 63.7629 291.326C63.8273 291.109 63.8963 290.895 63.9676 290.681C64.3471 289.545 65.0003 287.893 66.2492 286.667C67.5648 285.375 69.3496 284.813 70.9067 285.204C72.2338 285.536 73.278 286.559 73.7702 288.011C74.3337 289.665 74.0646 291.474 73.0687 292.734C71.3598 294.904 67.9328 295.542 65.0946 294.215C64.9934 294.167 64.8899 294.116 64.7887 294.066C64.032 298.294 64.5955 302.743 66.4355 306.636C68.6987 311.424 72.8295 315.249 77.7722 317.131C78.1931 317.293 78.407 317.765 78.246 318.189C78.1195 318.518 77.809 318.719 77.4778 318.719ZM65.1567 292.4C65.3614 292.522 65.5707 292.632 65.7823 292.734C67.6499 293.609 70.4053 293.467 71.7807 291.722C72.4247 290.907 72.5949 289.66 72.2177 288.545C71.9072 287.63 71.2839 286.994 70.5065 286.799C69.5106 286.552 68.2893 286.96 67.3923 287.842C66.3941 288.822 65.8444 290.229 65.5155 291.204C65.3844 291.598 65.2648 291.997 65.1567 292.4Z" fill="#030047"/>
<path d="M175.51 77.9549C172.732 77.9549 170.096 77.6185 167.615 76.9434C161.738 75.3467 156.809 71.7109 154.058 67.0337C154.005 67.0337 153.953 67.0337 153.9 67.0337C147.565 67.0337 141.185 63.0062 138.177 57.0203C135.256 51.2071 135.405 43.7328 138.57 37.5096C138.775 37.1063 139.267 36.9451 139.672 37.1501C140.074 37.3552 140.235 37.8506 140.028 38.2538C137.098 44.0185 136.949 50.9283 139.64 56.283C142.264 61.5062 147.697 65.0937 153.194 65.3747C153.171 65.3264 153.15 65.278 153.127 65.2296C150.365 59.0087 151.715 51.4237 156.34 47.1912C158.7 45.0323 161.552 44.1544 163.962 44.8457C167.773 45.9355 169.475 50.5827 168.919 54.4466C168.012 60.7344 162.414 65.9945 155.898 66.8977C158.502 70.8745 162.874 73.9573 168.042 75.3628C173.282 76.7867 179.294 76.6139 185.913 74.8536C186.353 74.7361 186.799 74.9988 186.914 75.4342C187.031 75.872 186.769 76.3213 186.332 76.4365C182.535 77.448 178.917 77.9549 175.51 77.9549ZM162.274 46.2534C160.698 46.2534 158.971 47.0092 157.446 48.4031C153.327 52.1725 152.14 58.9695 154.624 64.5637C154.741 64.8287 154.866 65.089 154.999 65.3494C161.106 64.8333 166.465 60.0155 167.302 54.2116C167.757 51.0459 166.467 47.2672 163.516 46.4239C163.118 46.3087 162.699 46.2534 162.274 46.2534Z" fill="#030047"/>
<path d="M270.393 69.6741C269.958 69.6741 269.597 69.3331 269.577 68.893C269.232 61.7504 270.391 55.5456 273.017 50.4514C275.81 45.0322 280.396 40.9679 285.539 39.2583C286.815 32.9913 292.121 27.5122 298.649 25.8118C304.935 24.1714 312.2 25.8925 317.608 30.2978C317.957 30.5835 318.01 31.0996 317.725 31.4522C317.437 31.8047 316.924 31.8554 316.573 31.572C311.565 27.4892 304.859 25.8902 299.06 27.4016C293.412 28.8739 288.768 33.4406 287.337 38.7652C287.39 38.7537 287.441 38.7422 287.494 38.7307C294.148 37.3321 301.266 40.249 304.422 45.6705C306.034 48.433 306.289 51.4075 305.109 53.6263C303.242 57.1308 298.347 57.8197 294.697 56.4626C288.749 54.253 284.793 47.6635 285.283 41.0923C280.856 42.8065 276.927 46.44 274.469 51.2071C271.978 56.041 270.881 61.9647 271.21 68.817C271.233 69.2686 270.883 69.6533 270.432 69.6764C270.418 69.6741 270.407 69.6741 270.393 69.6741ZM286.985 40.537C286.206 46.6243 289.78 52.8868 295.268 54.9258C298.262 56.0387 302.221 55.5664 303.665 52.8545C304.576 51.1426 304.332 48.7648 303.009 46.4953C300.197 41.666 293.809 39.0786 287.832 40.3343C287.547 40.3942 287.266 40.461 286.985 40.537Z" fill="#030047"/>
<path d="M498.107 264.62C497.902 264.62 497.695 264.615 497.488 264.608C497.037 264.59 496.683 264.21 496.702 263.758C496.718 263.307 497.088 262.94 497.55 262.97C503.802 263.224 510.078 259.228 512.549 253.507C513.234 251.918 514.205 248.821 512.988 245.946C512.841 245.595 512.659 245.266 512.45 244.959C511.728 245.667 510.941 246.307 510.099 246.863C508.381 247.998 505.814 248.738 504.225 247.091C503.287 246.114 503.102 244.471 503.788 243.185C504.363 242.107 505.465 241.301 506.812 240.978C508.747 240.515 510.854 241.153 512.454 242.526C514.354 240.188 515.575 237.271 515.817 234.285C516.176 229.831 514.359 225.184 511.079 222.156C510.745 221.85 510.725 221.331 511.031 220.997C511.339 220.665 511.856 220.642 512.187 220.949C515.831 224.31 517.846 229.472 517.45 234.416C517.176 237.803 515.771 241.105 513.584 243.729C513.945 244.211 514.253 244.738 514.494 245.307C515.573 247.856 515.414 250.998 514.05 254.159C511.362 260.387 504.869 264.62 498.107 264.62ZM508.091 242.464C507.788 242.464 507.489 242.499 507.196 242.568C506.318 242.78 505.582 243.296 505.235 243.952C504.88 244.618 504.954 245.478 505.407 245.948C506.235 246.807 507.953 246.312 509.2 245.489C509.97 244.98 510.693 244.39 511.353 243.738C510.396 242.939 509.227 242.464 508.091 242.464Z" fill="#030047"/>
<path d="M382.368 69.6741C381.954 69.6741 381.598 69.3607 381.554 68.9368C381.508 68.4852 381.835 68.0843 382.286 68.0382C386.764 67.5797 391.021 64.3517 393.675 59.4049C396.109 54.8682 396.99 49.6611 397.843 44.6267C397.907 44.2374 397.979 43.8272 398.036 43.4033C396.785 43.6867 395.577 43.6176 394.51 43.1729C393.158 42.6107 392.114 41.1822 391.913 39.6223C391.746 38.3275 392.185 37.18 393.116 36.4681C393.926 35.8506 394.968 35.6617 396.049 35.9336C397.399 36.2723 398.641 37.3045 399.216 38.5625C399.566 39.3274 399.736 40.1246 399.793 40.9218C400.028 40.7836 400.262 40.6292 400.495 40.4633C403.294 38.4542 405.207 35.3483 405.753 31.9406C405.824 31.4937 406.242 31.1895 406.689 31.2609C407.135 31.3324 407.438 31.7517 407.367 32.201C406.755 36.0372 404.6 39.5348 401.449 41.7974C400.89 42.1983 400.325 42.5347 399.759 42.8019C399.687 43.5369 399.57 44.2466 399.457 44.9009C398.583 50.0666 397.68 55.4074 395.117 60.1814C392.206 65.6097 387.47 69.1557 382.451 69.6695C382.424 69.6741 382.396 69.6741 382.368 69.6741ZM395.094 37.4565C394.775 37.4565 394.425 37.5349 394.105 37.7768C393.487 38.2491 393.482 39.0049 393.535 39.415C393.661 40.3965 394.319 41.3204 395.138 41.6614C396.005 42.0232 397.063 42.0139 398.176 41.6614C398.179 40.8204 398.066 39.9887 397.728 39.2491C397.358 38.4381 396.523 37.7468 395.649 37.528C395.488 37.4888 395.297 37.4565 395.094 37.4565Z" fill="#030047"/>
<path d="M96.9961 386.723L91.8418 389.974C89.4222 391.485 86.2436 390.762 84.7302 388.354L81.4849 383.191C79.9738 380.783 80.696 377.599 83.0995 376.083L88.2584 372.816C90.6619 371.3 93.8405 372.025 95.37 374.435L98.6107 379.615C100.124 382.023 99.3996 385.207 96.9961 386.723Z" fill="#FFCC3D"/>
<path d="M502.275 364.019L498.372 366.48C496.538 367.625 494.133 367.076 492.987 365.254L490.531 361.344C489.385 359.521 489.933 357.109 491.752 355.962L495.658 353.487C497.477 352.34 499.885 352.888 501.042 354.713L503.496 358.637C504.641 360.459 504.094 362.871 502.275 364.019Z" fill="#FFCC3D"/>
<path d="M98.2518 229.13L95.593 230.808C94.3441 231.587 92.7042 231.213 91.9245 229.971L90.2501 227.308C89.4704 226.066 89.843 224.423 91.0827 223.642L93.7438 221.958C94.9835 221.177 96.6234 221.55 97.4123 222.794L99.0844 225.467C99.8641 226.704 99.4915 228.347 98.2518 229.13Z" fill="#FFCC3D"/>
<path d="M494.884 160.004L492.226 161.682C490.977 162.461 489.337 162.087 488.557 160.845L486.883 158.182C486.103 156.94 486.476 155.297 487.715 154.516L490.376 152.832C491.616 152.051 493.256 152.424 494.045 153.668L495.717 156.341C496.497 157.578 496.124 159.221 494.884 160.004Z" fill="#FFCC3D"/>
<path d="M167.369 149.087C167.369 146.571 167.949 144.314 169.108 142.316C170.292 140.318 171.883 138.764 173.881 137.654C175.904 136.519 178.111 135.952 180.504 135.952C183.242 135.952 185.672 136.63 187.793 137.987C189.939 139.319 191.493 141.218 192.455 143.685H187.386C186.72 142.328 185.795 141.317 184.611 140.651C183.427 139.985 182.058 139.652 180.504 139.652C178.802 139.652 177.285 140.034 175.953 140.799C174.621 141.564 173.573 142.661 172.808 144.092C172.068 145.523 171.698 147.188 171.698 149.087C171.698 150.986 172.068 152.651 172.808 154.082C173.573 155.513 174.621 156.623 175.953 157.412C177.285 158.177 178.802 158.559 180.504 158.559C182.058 158.559 183.427 158.226 184.611 157.56C185.795 156.894 186.72 155.883 187.386 154.526H192.455C191.493 156.993 189.939 158.892 187.793 160.224C185.672 161.556 183.242 162.222 180.504 162.222C178.087 162.222 175.879 161.667 173.881 160.557C171.883 159.422 170.292 157.856 169.108 155.858C167.949 153.86 167.369 151.603 167.369 149.087ZM206.235 162.333C204.311 162.333 202.572 161.901 201.018 161.038C199.464 160.15 198.243 158.917 197.355 157.338C196.467 155.735 196.023 153.885 196.023 151.788C196.023 149.716 196.48 147.878 197.392 146.275C198.305 144.672 199.551 143.438 201.129 142.575C202.708 141.712 204.472 141.28 206.42 141.28C208.369 141.28 210.133 141.712 211.711 142.575C213.29 143.438 214.536 144.672 215.448 146.275C216.361 147.878 216.817 149.716 216.817 151.788C216.817 153.86 216.349 155.698 215.411 157.301C214.474 158.904 213.191 160.15 211.563 161.038C209.96 161.901 208.184 162.333 206.235 162.333ZM206.235 158.67C207.321 158.67 208.332 158.411 209.269 157.893C210.231 157.375 211.008 156.598 211.6 155.562C212.192 154.526 212.488 153.268 212.488 151.788C212.488 150.308 212.205 149.062 211.637 148.051C211.07 147.015 210.318 146.238 209.38 145.72C208.443 145.202 207.432 144.943 206.346 144.943C205.261 144.943 204.25 145.202 203.312 145.72C202.4 146.238 201.672 147.015 201.129 148.051C200.587 149.062 200.315 150.308 200.315 151.788C200.315 153.983 200.87 155.685 201.98 156.894C203.115 158.078 204.533 158.67 206.235 158.67ZM245.666 141.28C247.269 141.28 248.7 141.613 249.958 142.279C251.241 142.945 252.24 143.932 252.955 145.239C253.695 146.546 254.065 148.125 254.065 149.975V162H249.884V150.604C249.884 148.779 249.428 147.385 248.515 146.423C247.602 145.436 246.357 144.943 244.778 144.943C243.199 144.943 241.941 145.436 241.004 146.423C240.091 147.385 239.635 148.779 239.635 150.604V162H235.454V150.604C235.454 148.779 234.998 147.385 234.085 146.423C233.172 145.436 231.927 144.943 230.348 144.943C228.769 144.943 227.511 145.436 226.574 146.423C225.661 147.385 225.205 148.779 225.205 150.604V162H220.987V141.613H225.205V143.944C225.896 143.105 226.771 142.452 227.832 141.983C228.893 141.514 230.027 141.28 231.236 141.28C232.864 141.28 234.319 141.625 235.602 142.316C236.885 143.007 237.871 144.006 238.562 145.313C239.179 144.08 240.141 143.105 241.448 142.39C242.755 141.65 244.161 141.28 245.666 141.28ZM261.578 138.912C260.814 138.912 260.172 138.653 259.654 138.135C259.136 137.617 258.877 136.976 258.877 136.211C258.877 135.446 259.136 134.805 259.654 134.287C260.172 133.769 260.814 133.51 261.578 133.51C262.318 133.51 262.947 133.769 263.465 134.287C263.983 134.805 264.242 135.446 264.242 136.211C264.242 136.976 263.983 137.617 263.465 138.135C262.947 138.653 262.318 138.912 261.578 138.912ZM263.65 141.613V162H259.432V141.613H263.65ZM279.474 141.28C281.077 141.28 282.508 141.613 283.766 142.279C285.049 142.945 286.048 143.932 286.763 145.239C287.478 146.546 287.836 148.125 287.836 149.975V162H283.655V150.604C283.655 148.779 283.199 147.385 282.286 146.423C281.373 145.436 280.128 144.943 278.549 144.943C276.97 144.943 275.712 145.436 274.775 146.423C273.862 147.385 273.406 148.779 273.406 150.604V162H269.188V141.613H273.406V143.944C274.097 143.105 274.972 142.452 276.033 141.983C277.118 141.514 278.265 141.28 279.474 141.28ZM301.43 141.28C303.009 141.28 304.403 141.601 305.611 142.242C306.845 142.859 307.807 143.636 308.497 144.573V141.613H312.752V162.333C312.752 164.208 312.358 165.873 311.568 167.328C310.779 168.808 309.632 169.967 308.127 170.806C306.647 171.645 304.871 172.064 302.799 172.064C300.037 172.064 297.743 171.41 295.917 170.103C294.092 168.82 293.056 167.069 292.809 164.849H296.99C297.311 165.91 297.989 166.761 299.025 167.402C300.086 168.068 301.344 168.401 302.799 168.401C304.501 168.401 305.87 167.883 306.906 166.847C307.967 165.811 308.497 164.306 308.497 162.333V158.929C307.782 159.891 306.808 160.705 305.574 161.371C304.366 162.012 302.984 162.333 301.43 162.333C299.654 162.333 298.026 161.889 296.546 161.001C295.091 160.088 293.932 158.83 293.068 157.227C292.23 155.599 291.81 153.761 291.81 151.714C291.81 149.667 292.23 147.854 293.068 146.275C293.932 144.696 295.091 143.475 296.546 142.612C298.026 141.724 299.654 141.28 301.43 141.28ZM308.497 151.788C308.497 150.382 308.201 149.161 307.609 148.125C307.042 147.089 306.29 146.3 305.352 145.757C304.415 145.214 303.404 144.943 302.318 144.943C301.233 144.943 300.222 145.214 299.284 145.757C298.347 146.275 297.582 147.052 296.99 148.088C296.423 149.099 296.139 150.308 296.139 151.714C296.139 153.12 296.423 154.353 296.99 155.414C297.582 156.475 298.347 157.289 299.284 157.856C300.246 158.399 301.258 158.67 302.318 158.67C303.404 158.67 304.415 158.399 305.352 157.856C306.29 157.313 307.042 156.524 307.609 155.488C308.201 154.427 308.497 153.194 308.497 151.788ZM336.377 162.259C334.65 162.259 333.096 161.963 331.715 161.371C330.334 160.754 329.248 159.891 328.459 158.781C327.67 157.671 327.275 156.376 327.275 154.896H331.789C331.888 156.006 332.319 156.919 333.084 157.634C333.873 158.349 334.971 158.707 336.377 158.707C337.832 158.707 338.967 158.362 339.781 157.671C340.595 156.956 341.002 156.043 341.002 154.933C341.002 154.07 340.743 153.367 340.225 152.824C339.732 152.281 339.103 151.862 338.338 151.566C337.598 151.27 336.562 150.949 335.23 150.604C333.553 150.16 332.184 149.716 331.123 149.272C330.087 148.803 329.199 148.088 328.459 147.126C327.719 146.164 327.349 144.881 327.349 143.278C327.349 141.798 327.719 140.503 328.459 139.393C329.199 138.283 330.235 137.432 331.567 136.84C332.899 136.248 334.441 135.952 336.192 135.952C338.683 135.952 340.718 136.581 342.297 137.839C343.9 139.072 344.788 140.774 344.961 142.945H340.299C340.225 142.008 339.781 141.206 338.967 140.54C338.153 139.874 337.08 139.541 335.748 139.541C334.539 139.541 333.553 139.849 332.788 140.466C332.023 141.083 331.641 141.971 331.641 143.13C331.641 143.919 331.875 144.573 332.344 145.091C332.837 145.584 333.454 145.979 334.194 146.275C334.934 146.571 335.945 146.892 337.228 147.237C338.93 147.706 340.311 148.174 341.372 148.643C342.457 149.112 343.37 149.839 344.11 150.826C344.875 151.788 345.257 153.083 345.257 154.711C345.257 156.018 344.899 157.252 344.184 158.411C343.493 159.57 342.47 160.508 341.113 161.223C339.781 161.914 338.202 162.259 336.377 162.259ZM359.077 162.333C357.153 162.333 355.414 161.901 353.86 161.038C352.306 160.15 351.085 158.917 350.197 157.338C349.309 155.735 348.865 153.885 348.865 151.788C348.865 149.716 349.321 147.878 350.234 146.275C351.147 144.672 352.392 143.438 353.971 142.575C355.55 141.712 357.313 141.28 359.262 141.28C361.211 141.28 362.974 141.712 364.553 142.575C366.132 143.438 367.377 144.672 368.29 146.275C369.203 147.878 369.659 149.716 369.659 151.788C369.659 153.86 369.19 155.698 368.253 157.301C367.316 158.904 366.033 160.15 364.405 161.038C362.802 161.901 361.026 162.333 359.077 162.333ZM359.077 158.67C360.162 158.67 361.174 158.411 362.111 157.893C363.073 157.375 363.85 156.598 364.442 155.562C365.034 154.526 365.33 153.268 365.33 151.788C365.33 150.308 365.046 149.062 364.479 148.051C363.912 147.015 363.159 146.238 362.222 145.72C361.285 145.202 360.273 144.943 359.188 144.943C358.103 144.943 357.091 145.202 356.154 145.72C355.241 146.238 354.514 147.015 353.971 148.051C353.428 149.062 353.157 150.308 353.157 151.788C353.157 153.983 353.712 155.685 354.822 156.894C355.957 158.078 357.375 158.67 359.077 158.67ZM382.672 162.333C380.748 162.333 379.009 161.901 377.455 161.038C375.901 160.15 374.68 158.917 373.792 157.338C372.904 155.735 372.46 153.885 372.46 151.788C372.46 149.716 372.916 147.878 373.829 146.275C374.741 144.672 375.987 143.438 377.566 142.575C379.144 141.712 380.908 141.28 382.857 141.28C384.805 141.28 386.569 141.712 388.148 142.575C389.726 143.438 390.972 144.672 391.885 146.275C392.797 147.878 393.254 149.716 393.254 151.788C393.254 153.86 392.785 155.698 391.848 157.301C390.91 158.904 389.628 160.15 388 161.038C386.396 161.901 384.62 162.333 382.672 162.333ZM382.672 158.67C383.757 158.67 384.768 158.411 385.706 157.893C386.668 157.375 387.445 156.598 388.037 155.562C388.629 154.526 388.925 153.268 388.925 151.788C388.925 150.308 388.641 149.062 388.074 148.051C387.506 147.015 386.754 146.238 385.817 145.72C384.879 145.202 383.868 144.943 382.783 144.943C381.697 144.943 380.686 145.202 379.749 145.72C378.836 146.238 378.108 147.015 377.566 148.051C377.023 149.062 376.752 150.308 376.752 151.788C376.752 153.983 377.307 155.685 378.417 156.894C379.551 158.078 380.97 158.67 382.672 158.67ZM407.709 141.28C409.313 141.28 410.743 141.613 412.001 142.279C413.284 142.945 414.283 143.932 414.998 145.239C415.714 146.546 416.071 148.125 416.071 149.975V162H411.89V150.604C411.89 148.779 411.434 147.385 410.521 146.423C409.609 145.436 408.363 144.943 406.784 144.943C405.206 144.943 403.948 145.436 403.01 146.423C402.098 147.385 401.641 148.779 401.641 150.604V162H397.423V141.613H401.641V143.944C402.332 143.105 403.208 142.452 404.268 141.983C405.354 141.514 406.501 141.28 407.709 141.28ZM426.743 136.285L426.262 154.23H422.747L422.266 136.285H426.743ZM424.634 162.259C423.869 162.259 423.228 162 422.71 161.482C422.192 160.964 421.933 160.323 421.933 159.558C421.933 158.793 422.192 158.152 422.71 157.634C423.228 157.116 423.869 156.857 424.634 156.857C425.374 156.857 426.003 157.116 426.521 157.634C427.039 158.152 427.298 158.793 427.298 159.558C427.298 160.323 427.039 160.964 426.521 161.482C426.003 162 425.374 162.259 424.634 162.259Z" fill="white"/>
</svg>
