<svg width="49" height="49" viewBox="0 0 49 49" fill="none" xmlns="http://www.w3.org/2000/svg">
<path d="M14.5 34.5L20.9 20.9L34.5 14.5L28.1 28.1L14.5 34.5ZM24.5 22.7C24.0226 22.7 23.5648 22.8896 23.2272 23.2272C22.8896 23.5648 22.7 24.0226 22.7 24.5C22.7 24.9774 22.8896 25.4352 23.2272 25.7728C23.5648 26.1104 24.0226 26.3 24.5 26.3C24.9774 26.3 25.4352 26.1104 25.7728 25.7728C26.1104 25.4352 26.3 24.9774 26.3 24.5C26.3 24.0226 26.1104 23.5648 25.7728 23.2272C25.4352 22.8896 24.9774 22.7 24.5 22.7ZM24.5 4.5C27.1264 4.5 29.7272 5.01732 32.1537 6.02241C34.5802 7.0275 36.785 8.50069 38.6421 10.3579C40.4993 12.215 41.9725 14.4198 42.9776 16.8463C43.9827 19.2728 44.5 21.8736 44.5 24.5C44.5 29.8043 42.3929 34.8914 38.6421 38.6421C34.8914 42.3929 29.8043 44.5 24.5 44.5C21.8736 44.5 19.2728 43.9827 16.8463 42.9776C14.4198 41.9725 12.215 40.4993 10.3579 38.6421C6.60714 34.8914 4.5 29.8043 4.5 24.5C4.5 19.1957 6.60714 14.1086 10.3579 10.3579C14.1086 6.60714 19.1957 4.5 24.5 4.5ZM24.5 8.5C20.2565 8.5 16.1869 10.1857 13.1863 13.1863C10.1857 16.1869 8.5 20.2565 8.5 24.5C8.5 28.7435 10.1857 32.8131 13.1863 35.8137C16.1869 38.8143 20.2565 40.5 24.5 40.5C28.7435 40.5 32.8131 38.8143 35.8137 35.8137C38.8143 32.8131 40.5 28.7435 40.5 24.5C40.5 20.2565 38.8143 16.1869 35.8137 13.1863C32.8131 10.1857 28.7435 8.5 24.5 8.5Z" fill="black"/>
</svg>
