<svg width="49" height="49" viewBox="0 0 49 49" fill="none" xmlns="http://www.w3.org/2000/svg">
<path d="M27.5881 21.4122C25.9494 19.7757 23.7281 18.8564 21.4121 18.8564C19.0961 18.8564 16.8748 19.7757 15.2361 21.4122L9.05811 27.5882C7.41987 29.2265 6.49951 31.4484 6.49951 33.7652C6.49951 36.082 7.41987 38.304 9.05811 39.9422C10.6964 41.5805 12.9183 42.5008 15.2351 42.5008C17.5519 42.5008 19.7739 41.5805 21.4121 39.9422L24.5001 36.8542" stroke="black" stroke-width="4" stroke-linecap="round" stroke-linejoin="round"/>
<path d="M21.4121 27.5881C23.0508 29.2247 25.2721 30.1439 27.5881 30.1439C29.9041 30.1439 32.1254 29.2247 33.7641 27.5881L39.9421 21.4121C41.5804 19.7739 42.5007 17.5519 42.5007 15.2351C42.5007 12.9183 41.5804 10.6964 39.9421 9.05811C38.3039 7.41987 36.0819 6.49951 33.7651 6.49951C31.4483 6.49951 29.2264 7.41987 27.5881 9.05811L24.5001 12.1461" stroke="black" stroke-width="4" stroke-linecap="round" stroke-linejoin="round"/>
</svg>
