<svg width="48" height="49" viewBox="0 0 48 49" fill="none" xmlns="http://www.w3.org/2000/svg">
<path d="M29.88 39.5L24 36.04L18.12 39.5L19.68 32.82L14.5 28.34L21.32 27.76L24 21.5L26.68 27.76L33.5 28.34L28.32 32.82M40 4.5H8.00002V8.5L17.72 15.78C14.3288 17.2272 11.5415 19.8011 9.8295 23.0666C8.11745 26.3321 7.58575 30.0887 8.3243 33.701C9.06286 37.3133 11.0263 40.5597 13.8827 42.8912C16.739 45.2226 20.313 46.496 24 46.496C27.6871 46.496 31.261 45.2226 34.1174 42.8912C36.9737 40.5597 38.9372 37.3133 39.6757 33.701C40.4143 30.0887 39.8826 26.3321 38.1706 23.0666C36.4585 19.8011 33.6712 17.2272 30.28 15.78L40 8.5M36 30.5C36.0011 32.7726 35.3568 34.9987 34.1422 36.9194C32.9276 38.8401 31.1925 40.3764 29.1389 41.3496C27.0852 42.3228 24.7975 42.6929 22.5418 42.4167C20.2861 42.1405 18.1551 41.2295 16.3969 39.7897C14.6387 38.3498 13.3255 36.4403 12.6101 34.2833C11.8947 32.1263 11.8065 29.8105 12.3558 27.6053C12.9051 25.4001 14.0692 23.3962 15.7128 21.8268C17.3564 20.2574 19.4119 19.1869 21.64 18.74C23.1973 18.4221 24.8027 18.4221 26.36 18.74C29.0779 19.2852 31.5232 20.7544 33.2805 22.8982C35.0378 25.042 35.9987 27.728 36 30.5ZM25.26 14.5H22.74L14.74 8.5H33.42L25.26 14.5Z" fill="black"/>
</svg>
