<svg width="56" height="56" viewBox="0 0 56 56" fill="none" xmlns="http://www.w3.org/2000/svg">
<rect x="4" y="4" width="48" height="48" rx="24" fill="#DFF3EC"/>
<rect x="4" y="4" width="48" height="48" rx="24" stroke="#EAF8F2" stroke-width="8"/>
<path fill-rule="evenodd" clip-rule="evenodd" d="M16.922 21.9661C16.8881 21.8106 16.9173 21.6481 17.0033 21.5142C17.0893 21.3803 17.2249 21.286 17.3804 21.2521L34.964 17.4025C35.1193 17.3686 35.2817 17.3977 35.4156 17.4834C35.5494 17.5691 35.6438 17.7044 35.678 17.8597L36.4484 21.3757C36.4653 21.4528 36.4669 21.5324 36.453 21.6101C36.4392 21.6878 36.4101 21.762 36.3675 21.8284C36.325 21.8948 36.2697 21.9522 36.2049 21.9972C36.1401 22.0423 36.0671 22.0741 35.99 22.0909L18.4064 25.9405C18.2511 25.9744 18.0887 25.9453 17.9548 25.8596C17.8209 25.7739 17.7265 25.6385 17.6924 25.4833L16.922 21.9661ZM18.2228 22.2961L18.7364 24.6397L35.1476 21.0457L34.634 18.7009L18.2228 22.2961Z" fill="#017544"/>
<path fill-rule="evenodd" clip-rule="evenodd" d="M27.8249 23.6055L24.7121 20.6019L25.5449 19.7379L28.6601 22.7415L27.8249 23.6055ZM23.1365 24.6315L20.0225 21.6291L20.8553 20.7651L23.9681 23.7687L23.1365 24.6315ZM32.5145 22.5783L29.3993 19.5759L30.2333 18.7119L33.3473 21.7155L32.5145 22.5783ZM26.7869 29.5323L29.1869 25.9323L28.1885 25.2675L25.7885 28.8675L26.7869 29.5323ZM31.5869 29.5323L33.9869 25.9323L32.9885 25.2675L30.5885 28.8675L31.5869 29.5323ZM21.9869 29.5323L24.3869 25.9323L23.3885 25.2675L20.9885 28.8675L21.9869 29.5323Z" fill="#017544"/>
<path fill-rule="evenodd" clip-rule="evenodd" d="M17.8877 25.6C17.8877 25.4409 17.9509 25.2883 18.0634 25.1757C18.176 25.0632 18.3286 25 18.4877 25H36.4877C36.6468 25 36.7994 25.0632 36.912 25.1757C37.0245 25.2883 37.0877 25.4409 37.0877 25.6V36.4C37.0877 36.5591 37.0245 36.7117 36.912 36.8243C36.7994 36.9368 36.6468 37 36.4877 37H18.4877C18.3286 37 18.176 36.9368 18.0634 36.8243C17.9509 36.7117 17.8877 36.5591 17.8877 36.4V25.6ZM19.0877 26.2V35.8H35.8877V26.2H19.0877Z" fill="#017544"/>
<path fill-rule="evenodd" clip-rule="evenodd" d="M37.0877 29.7996H17.8877V28.5996H37.0877V29.7996Z" fill="#017544"/>
</svg>
