<svg width="56" height="57" viewBox="0 0 56 57" fill="none" xmlns="http://www.w3.org/2000/svg">
<rect x="4" y="4.5" width="48" height="48" rx="24" fill="#DFF3EC"/>
<rect x="4" y="4.5" width="48" height="48" rx="24" stroke="#EAF8F2" stroke-width="8"/>
<path d="M28 38.5C26.6333 38.5 25.3417 38.2373 24.125 37.712C22.9083 37.1867 21.846 36.47 20.938 35.562C20.03 34.654 19.3133 33.5917 18.788 32.375C18.2627 31.1583 18 29.8667 18 28.5C18 27.1167 18.271 25.8167 18.813 24.6C19.355 23.3833 20.0883 22.325 21.013 21.425C21.9377 20.525 23.0167 19.8127 24.25 19.288C25.4833 18.7633 26.8 18.5007 28.2 18.5C29.5333 18.5 30.7917 18.7293 31.975 19.188C33.1583 19.6467 34.196 20.28 35.088 21.088C35.98 21.896 36.6883 22.8543 37.213 23.963C37.7377 25.0717 38 26.2673 38 27.55C38 29.4667 37.4167 30.9377 36.25 31.963C35.0833 32.9883 33.6667 33.5007 32 33.5H30.15C30 33.5 29.896 33.5417 29.838 33.625C29.78 33.7083 29.7507 33.8 29.75 33.9C29.75 34.1 29.875 34.3877 30.125 34.763C30.375 35.1383 30.5 35.5673 30.5 36.05C30.5 36.8833 30.271 37.5 29.813 37.9C29.355 38.3 28.7507 38.5 28 38.5ZM22.5 29.5C22.9333 29.5 23.2917 29.3583 23.575 29.075C23.8583 28.7917 24 28.4333 24 28C24 27.5667 23.8583 27.2083 23.575 26.925C23.2917 26.6417 22.9333 26.5 22.5 26.5C22.0667 26.5 21.7083 26.6417 21.425 26.925C21.1417 27.2083 21 27.5667 21 28C21 28.4333 21.1417 28.7917 21.425 29.075C21.7083 29.3583 22.0667 29.5 22.5 29.5ZM25.5 25.5C25.9333 25.5 26.2917 25.3583 26.575 25.075C26.8583 24.7917 27 24.4333 27 24C27 23.5667 26.8583 23.2083 26.575 22.925C26.2917 22.6417 25.9333 22.5 25.5 22.5C25.0667 22.5 24.7083 22.6417 24.425 22.925C24.1417 23.2083 24 23.5667 24 24C24 24.4333 24.1417 24.7917 24.425 25.075C24.7083 25.3583 25.0667 25.5 25.5 25.5ZM30.5 25.5C30.9333 25.5 31.2917 25.3583 31.575 25.075C31.8583 24.7917 32 24.4333 32 24C32 23.5667 31.8583 23.2083 31.575 22.925C31.2917 22.6417 30.9333 22.5 30.5 22.5C30.0667 22.5 29.7083 22.6417 29.425 22.925C29.1417 23.2083 29 23.5667 29 24C29 24.4333 29.1417 24.7917 29.425 25.075C29.7083 25.3583 30.0667 25.5 30.5 25.5ZM33.5 29.5C33.9333 29.5 34.2917 29.3583 34.575 29.075C34.8583 28.7917 35 28.4333 35 28C35 27.5667 34.8583 27.2083 34.575 26.925C34.2917 26.6417 33.9333 26.5 33.5 26.5C33.0667 26.5 32.7083 26.6417 32.425 26.925C32.1417 27.2083 32 27.5667 32 28C32 28.4333 32.1417 28.7917 32.425 29.075C32.7083 29.3583 33.0667 29.5 33.5 29.5ZM28 36.5C28.15 36.5 28.271 36.4583 28.363 36.375C28.455 36.2917 28.5007 36.1833 28.5 36.05C28.5 35.8167 28.375 35.5417 28.125 35.225C27.875 34.9083 27.75 34.4333 27.75 33.8C27.75 33.1 27.9917 32.5417 28.475 32.125C28.9583 31.7083 29.55 31.5 30.25 31.5H32C33.1 31.5 34.0417 31.1793 34.825 30.538C35.6083 29.8967 36 28.9007 36 27.55C36 25.5333 35.2293 23.854 33.688 22.512C32.1467 21.17 30.3173 20.4993 28.2 20.5C25.9333 20.5 24 21.275 22.4 22.825C20.8 24.375 20 26.2667 20 28.5C20 30.7167 20.7793 32.6043 22.338 34.163C23.8967 35.7217 25.784 36.5007 28 36.5Z" fill="#017544"/>
</svg>
