<svg width="48" height="49" viewBox="0 0 48 49" fill="none" xmlns="http://www.w3.org/2000/svg">
<path opacity="0.5" d="M24 16C22.8838 16 21.7785 16.2199 20.7472 16.647C19.7159 17.0742 18.7789 17.7003 17.9896 18.4896C17.2003 19.2789 16.5742 20.2159 16.147 21.2472C15.7199 22.2785 15.5 23.3838 15.5 24.5C15.5 25.6162 15.7199 26.7215 16.147 27.7528C16.5742 28.7841 17.2003 29.7211 17.9896 30.5104C18.7789 31.2997 19.7159 31.9258 20.7472 32.353C21.7785 32.7801 22.8838 33 24 33C26.2543 33 28.4163 32.1045 30.0104 30.5104C31.6045 28.9163 32.5 26.7543 32.5 24.5C32.5 22.2457 31.6045 20.0837 30.0104 18.4896C28.4163 16.8955 26.2543 16 24 16ZM12.5 24.5C12.5 21.45 13.7116 18.5249 15.8683 16.3683C18.0249 14.2116 20.95 13 24 13C27.05 13 29.9751 14.2116 32.1317 16.3683C34.2884 18.5249 35.5 21.45 35.5 24.5C35.5 27.55 34.2884 30.4751 32.1317 32.6317C29.9751 34.7884 27.05 36 24 36C20.95 36 18.0249 34.7884 15.8683 32.6317C13.7116 30.4751 12.5 27.55 12.5 24.5Z" fill="black"/>
<path d="M9.49989 24.4999C9.501 21.3944 10.4991 18.3713 12.3473 15.8757C14.1955 13.38 16.7961 11.5436 19.7663 10.6369C22.7365 9.73018 25.9193 9.80102 28.8463 10.839C31.7732 11.8769 34.2895 13.8272 36.0248 16.4026C37.7602 18.978 38.6228 22.0425 38.4858 25.145C38.3487 28.2475 37.2192 31.224 35.2635 33.6364C33.3078 36.0488 30.6293 37.7695 27.6223 38.5453C24.6152 39.3212 21.4386 39.111 18.5599 37.9459C18.3761 37.8651 18.1779 37.8219 17.9772 37.8191C17.7764 37.8162 17.5771 37.8537 17.391 37.9293C17.205 38.005 17.0361 38.1171 16.8942 38.2593C16.7524 38.4014 16.6405 38.5705 16.5652 38.7567C16.49 38.9428 16.4528 39.1422 16.456 39.343C16.4593 39.5438 16.5028 39.7419 16.584 39.9255C16.6652 40.1092 16.7824 40.2746 16.9287 40.4121C17.0751 40.5496 17.2475 40.6563 17.4359 40.7259C21.1776 42.2389 25.3273 42.4119 29.182 41.2159C33.0367 40.0198 36.3595 37.5281 38.5876 34.1628C40.8156 30.7976 41.812 26.7656 41.4079 22.7499C41.0038 18.7341 39.2241 14.9815 36.3702 12.1276C33.5163 9.27372 29.7637 7.49401 25.748 7.08991C21.7322 6.68582 17.7003 7.6822 14.335 9.91027C10.9697 12.1383 8.47803 15.4611 7.28196 19.3159C6.08589 23.1706 6.25897 27.3202 7.77189 31.0619C7.8415 31.2503 7.94821 31.4227 8.08571 31.5691C8.2232 31.7154 8.38868 31.8327 8.57233 31.9139C8.75598 31.9951 8.95406 32.0386 9.15484 32.0418C9.35561 32.045 9.55499 32.0079 9.74114 31.9326C9.9273 31.8573 10.0965 31.7455 10.2386 31.6036C10.3807 31.4618 10.4929 31.2928 10.5685 31.1068C10.6441 30.9208 10.6816 30.7215 10.6787 30.5207C10.6759 30.3199 10.6328 30.1217 10.5519 29.9379C9.85263 28.2104 9.49536 26.3636 9.49989 24.4999Z" fill="black"/>
<path d="M24 28.5C24.8595 28.4997 25.696 28.2225 26.3857 27.7095C27.0753 27.1965 27.5814 26.475 27.8289 25.6519C28.0764 24.8288 28.0522 23.9478 27.7599 23.1395C27.4676 22.3313 26.9227 21.6386 26.2059 21.1643C25.4891 20.6899 24.6386 20.4591 23.7803 20.5059C22.9221 20.5528 22.1018 20.8749 21.4409 21.4244C20.78 21.974 20.3137 22.7218 20.1111 23.5571C19.9085 24.3924 19.9803 25.2707 20.316 26.062L13.938 32.44L13.88 32.5H11.54C10.7446 32.5007 9.98203 32.8172 9.41996 33.38L6.14596 36.654C5.93644 36.8638 5.79379 37.1309 5.73603 37.4217C5.67826 37.7125 5.70796 38.0139 5.82138 38.2878C5.93481 38.5618 6.12686 38.7959 6.37329 38.9608C6.61972 39.1256 6.90948 39.2137 7.20596 39.214H9.28596V41.294C9.28622 41.5905 9.37433 41.8802 9.53917 42.1267C9.70401 42.3731 9.93818 42.5652 10.2121 42.6786C10.486 42.792 10.7874 42.8217 11.0782 42.7639C11.369 42.7062 11.6362 42.5635 11.846 42.354L15.12 39.078C15.6822 38.5164 15.9987 37.7547 16 36.96V34.62L16.06 34.562L22.436 28.186C22.916 28.39 23.444 28.502 23.998 28.502M13.878 34.502L13.998 34.62V36.96C13.9974 37.225 13.8916 37.4789 13.704 37.666L11.284 40.086V38.216C11.284 37.9508 11.1786 37.6964 10.9911 37.5089C10.8035 37.3214 10.5492 37.216 10.284 37.216H8.41196L10.832 34.796C10.9249 34.7022 11.0355 34.6278 11.1574 34.577C11.2792 34.5262 11.4099 34.5 11.542 34.5L13.878 34.502Z" fill="black"/>
</svg>
