<svg width="78" height="44" viewBox="0 0 78 44" fill="none" xmlns="http://www.w3.org/2000/svg">
<path d="M7 33.6631H9.98048V34.077H7.441V35.9478H9.79243V36.3533H7.441V38.3259H10.0587V38.7398H7V33.6631Z" fill="black"/>
<path d="M11.0266 34.9899H11.3811L11.416 35.7159C11.5612 35.4501 11.7576 35.2469 12.0051 35.1068C12.2535 34.9666 12.5297 34.8965 12.8339 34.8965C13.3206 34.8965 13.705 35.0563 13.9871 35.3755C14.27 35.6938 14.4115 36.1239 14.4115 36.6655V38.7399H13.9904V36.7022C13.9904 36.2716 13.8814 35.9308 13.6643 35.6792C13.4479 35.428 13.1542 35.302 12.7839 35.302C12.5231 35.302 12.2914 35.365 12.0883 35.4906C11.8861 35.6166 11.7289 35.7918 11.6157 36.0163C11.5026 36.2412 11.446 36.5011 11.446 36.7957V38.7399H11.0266V34.9899Z" fill="black"/>
<path d="M15.5153 34.99H15.9347V38.7399H15.5153V34.99ZM15.3406 33.9236C15.3406 33.818 15.3755 33.7291 15.4454 33.6565C15.5153 33.5831 15.6085 33.5464 15.725 33.5464C15.8402 33.5464 15.933 33.5831 16.0029 33.6565C16.0728 33.7291 16.1077 33.818 16.1077 33.9236C16.1077 34.035 16.0728 34.1272 16.0029 34.2006C15.933 34.2732 15.8402 34.3091 15.725 34.3091C15.6085 34.3091 15.5153 34.2732 15.4454 34.2006C15.3755 34.1272 15.3406 34.035 15.3406 33.9236Z" fill="black"/>
<path d="M18.8247 33.6631H20.7485C21.2165 33.6631 21.5888 33.7828 21.8651 34.0219C22.1422 34.2614 22.2811 34.5818 22.2811 34.9832C22.2811 35.2581 22.2121 35.4951 22.0748 35.6941C21.9383 35.8923 21.7469 36.0346 21.5006 36.1214C21.7944 36.2081 22.0219 36.3596 22.1829 36.5753C22.3448 36.7902 22.4259 37.0501 22.4259 37.3547C22.4259 37.7798 22.282 38.1169 21.9949 38.366C21.7087 38.6155 21.3197 38.7398 20.8283 38.7398H18.8247V33.6631ZM20.8134 38.3259C21.1803 38.3259 21.4661 38.2392 21.6704 38.0656C21.8755 37.8912 21.9783 37.6492 21.9783 37.3396C21.9783 37.0259 21.8742 36.7835 21.6671 36.612C21.4595 36.4397 21.1678 36.3533 20.7917 36.3533H19.2657V38.3259H20.8134ZM20.7335 35.9478C21.0805 35.9478 21.3509 35.8656 21.5439 35.7008C21.737 35.5364 21.8335 35.3065 21.8335 35.0115C21.8335 34.7212 21.737 34.4934 21.5439 34.3273C21.3509 34.1604 21.0834 34.077 20.7418 34.077H19.2657V35.9478H20.7335Z" fill="black"/>
<path d="M23.3357 34.9897H23.6902L23.7334 35.8309C23.8586 35.5463 24.0334 35.3348 24.2576 35.1967C24.4815 35.059 24.7644 34.9897 25.1063 34.9897H25.4175V35.3819H25.093C24.6737 35.3819 24.3458 35.5163 24.1095 35.7841C23.8732 36.0524 23.7551 36.4625 23.7551 37.0141V38.7397H23.3357V34.9897Z" fill="black"/>
<path d="M27.0369 38.7983C26.603 38.7983 26.2589 38.6982 26.0052 38.4979C25.7522 38.2968 25.6257 38.024 25.6257 37.6802C25.6257 37.3477 25.741 37.0836 25.9719 36.8875C26.2036 36.6918 26.5127 36.5937 26.8988 36.5937H28.548V36.325C28.548 36.0105 28.4431 35.7589 28.2334 35.5707C28.0238 35.3817 27.745 35.287 27.398 35.287C27.1185 35.287 26.8747 35.3538 26.6675 35.4873C26.4599 35.6199 26.318 35.8002 26.2415 36.028H25.8138C25.9057 35.68 26.0925 35.4047 26.3746 35.2019C26.6563 34.9983 26.9953 34.8965 27.3914 34.8965C27.6997 34.8965 27.973 34.9561 28.2118 35.0751C28.4502 35.1931 28.6353 35.3583 28.7676 35.5707C28.9008 35.7835 28.9673 36.0276 28.9673 36.3034V38.7399H28.6195L28.5763 38.0941C28.4132 38.321 28.1989 38.4954 27.9339 38.6164C27.6685 38.7378 27.3698 38.7983 27.0369 38.7983ZM26.0451 37.6735C26.0451 37.9005 26.1354 38.082 26.3164 38.2176C26.4969 38.3536 26.7415 38.4212 27.0502 38.4212C27.3352 38.4212 27.5919 38.3657 27.8207 38.2543C28.0504 38.1433 28.2301 37.9885 28.3599 37.7903C28.4897 37.5913 28.5546 37.3689 28.5546 37.1228V36.9626H26.9138C26.6575 36.9626 26.4482 37.0285 26.2864 37.1595C26.1254 37.2897 26.0451 37.4611 26.0451 37.6735Z" fill="black"/>
<path d="M30.072 34.9899H30.4265L30.4614 35.7159C30.6066 35.4501 30.803 35.2469 31.0505 35.1068C31.2989 34.9666 31.5752 34.8965 31.8793 34.8965C32.366 34.8965 32.7505 35.0563 33.0325 35.3755C33.3154 35.6938 33.4569 36.1239 33.4569 36.6655V38.7399H33.0359V36.7022C33.0359 36.2716 32.9269 35.9308 32.7097 35.6792C32.4933 35.428 32.1996 35.302 31.8294 35.302C31.5685 35.302 31.3368 35.365 31.1337 35.4906C30.9316 35.6166 30.7743 35.7918 30.6611 36.0163C30.548 36.2412 30.4914 36.5011 30.4914 36.7957V38.7399H30.072V34.9899Z" fill="black"/>
<path d="M36.1515 38.8331C35.7795 38.8331 35.448 38.7484 35.1563 38.5795C34.8643 38.4105 34.6375 38.1764 34.4757 37.8769C34.3147 37.5765 34.2344 37.2377 34.2344 36.8605C34.2344 36.4834 34.3147 36.1462 34.4757 35.8492C34.6375 35.5521 34.8643 35.3193 35.1563 35.1499C35.448 34.9809 35.7795 34.8962 36.1515 34.8962C36.4885 34.8962 36.793 34.9663 37.0651 35.1065C37.338 35.2467 37.5585 35.4399 37.7274 35.6856V33.3726H38.1468V38.7397H37.8006L37.749 38.0004C37.5847 38.2607 37.3638 38.4652 37.0867 38.6129C36.8105 38.7597 36.4984 38.8331 36.1515 38.8331ZM34.6537 36.8605C34.6537 37.1655 34.7186 37.4363 34.8484 37.6733C34.9791 37.9103 35.1613 38.0955 35.3943 38.229C35.6281 38.3617 35.8973 38.4276 36.2014 38.4276C36.5009 38.4276 36.7672 38.3617 37.0002 38.229C37.234 38.0955 37.4162 37.9103 37.546 37.6733C37.6767 37.4363 37.7424 37.1655 37.7424 36.8605C37.7424 36.5614 37.6767 36.2931 37.546 36.0561C37.4162 35.8191 37.234 35.6347 37.0002 35.5021C36.7672 35.3685 36.5009 35.3018 36.2014 35.3018C35.8973 35.3018 35.6281 35.3685 35.3943 35.5021C35.1613 35.6347 34.9791 35.8191 34.8484 36.0561C34.7186 36.2931 34.6537 36.5614 34.6537 36.8605Z" fill="black"/>
<path d="M42.3236 33.6631H42.743L44.8398 38.7398H44.3772L43.8496 37.4631H41.217L40.6961 38.7398H40.2268L42.3236 33.6631ZM43.6832 37.0576L42.5333 34.2656L41.39 37.0576H43.6832Z" fill="black"/>
<path d="M45.4456 34.9897H45.8L45.8433 35.8309C45.9685 35.5463 46.1432 35.3348 46.3675 35.1967C46.5913 35.059 46.8742 34.9897 47.2162 34.9897H47.5274V35.3819H47.2029C46.7835 35.3819 46.4557 35.5163 46.2194 35.7841C45.9831 36.0524 45.8649 36.4625 45.8649 37.0141V38.7397H45.4456V34.9897Z" fill="black"/>
<path d="M49.5723 38.8334C49.2017 38.8334 48.8717 38.7487 48.5822 38.5797C48.2926 38.4107 48.0667 38.1775 47.9049 37.8804C47.7439 37.5834 47.6636 37.2438 47.6636 36.8608C47.6636 36.4794 47.7439 36.1398 47.9049 35.8427C48.0667 35.5448 48.2926 35.3129 48.5822 35.1468C48.8717 34.9799 49.2017 34.8965 49.5723 34.8965C50.0158 34.8965 50.4065 35.0191 50.7439 35.2636C51.0821 35.5073 51.3039 35.8323 51.4096 36.2383H50.9835C50.8625 35.9437 50.6778 35.7138 50.4294 35.549C50.1818 35.3846 49.896 35.302 49.5723 35.302C49.2836 35.302 49.0257 35.3679 48.7985 35.499C48.5722 35.6291 48.3962 35.8127 48.271 36.0497C48.1453 36.2867 48.0829 36.557 48.0829 36.8608C48.0829 37.1657 48.1453 37.4365 48.271 37.6735C48.3962 37.9105 48.5722 38.0957 48.7985 38.2292C49.0257 38.3619 49.2836 38.4278 49.5723 38.4278C49.9152 38.4278 50.213 38.339 50.466 38.1608C50.7189 37.9818 50.8987 37.7369 51.0052 37.4265H51.4462C51.3205 37.8671 51.0917 38.2121 50.7589 38.4612C50.426 38.7095 50.0304 38.8334 49.5723 38.8334Z" fill="black"/>
<path d="M52.283 33.3726H52.7023V35.6723C52.8463 35.4211 53.041 35.2292 53.2864 35.0965C53.5327 34.963 53.8056 34.8962 54.1052 34.8962C54.5865 34.8962 54.9672 35.054 55.2468 35.3685C55.5272 35.6823 55.6678 36.1095 55.6678 36.6502V38.7397H55.2468V36.687C55.2468 36.2564 55.1395 35.9184 54.9256 35.6723C54.7114 35.4253 54.4185 35.3018 54.0469 35.3018C53.7861 35.3018 53.5531 35.3635 53.348 35.487C53.1437 35.6105 52.9852 35.7849 52.8721 36.0094C52.7589 36.2343 52.7023 36.4942 52.7023 36.7888V38.7397H52.283V33.3726Z" fill="black"/>
<path d="M56.7717 34.99H57.191V38.7399H56.7717V34.99ZM56.5969 33.9236C56.5969 33.818 56.6319 33.7291 56.7018 33.6565C56.7717 33.5831 56.8649 33.5464 56.9813 33.5464C57.0966 33.5464 57.1894 33.5831 57.2593 33.6565C57.3291 33.7291 57.3641 33.818 57.3641 33.9236C57.3641 34.035 57.3291 34.1272 57.2593 34.2006C57.1894 34.2732 57.0966 34.3091 56.9813 34.3091C56.8649 34.3091 56.7717 34.2732 56.7018 34.2006C56.6319 34.1272 56.5969 34.035 56.5969 33.9236Z" fill="black"/>
<path d="M59.8938 38.7398C59.4944 38.7398 59.1907 38.6305 58.9835 38.411C58.7759 38.1907 58.6723 37.8678 58.6723 37.4414V35.3737H57.8552V34.9898H58.3328C58.4726 34.9898 58.5683 34.9673 58.6207 34.9214C58.674 34.8759 58.7077 34.7829 58.7222 34.6427L58.7589 34.0686H59.0917V34.9898H60.3864V35.3737H59.0917V37.4264C59.0917 37.7368 59.1574 37.9663 59.2897 38.114C59.4228 38.2608 59.6292 38.3343 59.9088 38.3343H60.4363V38.7398H59.8938Z" fill="black"/>
<path d="M62.6546 38.8334C62.2785 38.8334 61.9457 38.7504 61.6561 38.5847C61.3674 38.4178 61.1436 38.1859 60.9838 37.8888C60.8249 37.5909 60.7458 37.2479 60.7458 36.8608C60.7458 36.4794 60.8261 36.1398 60.9872 35.8427C61.149 35.5448 61.3749 35.3129 61.6645 35.1468C61.954 34.9799 62.2868 34.8965 62.6629 34.8965C63.0478 34.8965 63.3873 34.9862 63.6814 35.1652C63.9764 35.3433 64.201 35.5949 64.3554 35.9195C64.5093 36.2433 64.5817 36.6154 64.5717 37.036H61.1719C61.2106 37.4611 61.3637 37.8003 61.6312 38.054C61.8995 38.3077 62.2407 38.4345 62.6546 38.4345C62.9583 38.4345 63.2258 38.3673 63.4567 38.2326C63.6885 38.097 63.8669 37.9084 63.9926 37.6668L64.4635 37.6735C64.3192 38.0319 64.0866 38.3152 63.7663 38.523C63.4455 38.7299 63.0748 38.8334 62.6546 38.8334ZM64.159 36.6655C64.1112 36.2408 63.9518 35.9062 63.6814 35.6625C63.4118 35.418 63.0723 35.2953 62.6629 35.2953C62.2477 35.2953 61.9049 35.4201 61.6345 35.6692C61.3649 35.9174 61.2106 36.2495 61.1719 36.6655H64.159Z" fill="black"/>
<path d="M66.9986 38.8334C66.6279 38.8334 66.298 38.7487 66.0084 38.5797C65.7189 38.4107 65.493 38.1775 65.3311 37.8804C65.1701 37.5834 65.0898 37.2438 65.0898 36.8608C65.0898 36.4794 65.1701 36.1398 65.3311 35.8427C65.493 35.5448 65.7189 35.3129 66.0084 35.1468C66.298 34.9799 66.6279 34.8965 66.9986 34.8965C67.4421 34.8965 67.8328 35.0191 68.1702 35.2636C68.5084 35.5073 68.7302 35.8323 68.8358 36.2383H68.4098C68.2887 35.9437 68.104 35.7138 67.8556 35.549C67.6081 35.3846 67.3223 35.302 66.9986 35.302C66.7099 35.302 66.4519 35.3679 66.2248 35.499C65.9985 35.6291 65.8225 35.8127 65.6973 36.0497C65.5716 36.2867 65.5092 36.557 65.5092 36.8608C65.5092 37.1657 65.5716 37.4365 65.6973 37.6735C65.8225 37.9105 65.9985 38.0957 66.2248 38.2292C66.4519 38.3619 66.7099 38.4278 66.9986 38.4278C67.3414 38.4278 67.6393 38.339 67.8923 38.1608C68.1452 37.9818 68.3249 37.7369 68.4314 37.4265H68.8724C68.7468 37.8671 68.518 38.2121 68.1851 38.4612C67.8523 38.7095 67.4567 38.8334 66.9986 38.8334Z" fill="black"/>
<path d="M71.104 38.7398C70.7046 38.7398 70.4009 38.6305 70.1937 38.411C69.9861 38.1907 69.8825 37.8678 69.8825 37.4414V35.3737H69.0654V34.9898H69.543C69.6828 34.9898 69.7785 34.9673 69.8309 34.9214C69.8842 34.8759 69.9179 34.7829 69.9324 34.6427L69.9691 34.0686H70.3019V34.9898H71.5966V35.3737H70.3019V37.4264C70.3019 37.7368 70.3676 37.9663 70.4999 38.114C70.6331 38.2608 70.8394 38.3343 71.119 38.3343H71.6465V38.7398H71.104Z" fill="black"/>
<path d="M17.5726 28.775C15.6664 28.775 13.9864 28.402 12.5319 27.6568C11.0775 26.9116 9.9417 25.8724 9.12544 24.5393C8.30877 23.2067 7.90063 21.6689 7.90063 19.9265C7.90063 18.1634 8.31376 16.6201 9.14042 15.2971C9.96791 13.9745 11.1141 12.9406 12.5785 12.1963C14.0438 11.4511 15.7292 11.0781 17.6342 11.0781C19.7277 11.0781 21.5175 11.5087 23.0044 12.3698C24.4909 13.2301 25.6158 14.4372 26.3793 15.9913C27.1435 17.5446 27.463 19.3704 27.3378 21.4686H14.8401C15.0286 22.2463 15.3897 22.8187 15.9235 23.1859C16.4568 23.553 17.08 23.7366 17.7923 23.7366C18.3148 23.7366 18.8012 23.6477 19.2517 23.4696C19.7019 23.2906 20.063 23.0436 20.3351 22.7286H27.0549C26.3635 24.639 25.1861 26.1244 23.5219 27.1845C21.8578 28.2451 19.8745 28.775 17.5726 28.775ZM14.8717 18.1625H20.618C20.4083 17.4908 20.0626 16.9709 19.5812 16.6038C19.0995 16.2366 18.4929 16.0531 17.7607 16.0531C17.0484 16.0531 16.441 16.2266 15.9384 16.5738C15.4359 16.92 15.0802 17.4495 14.8717 18.1625Z" fill="black"/>
<path d="M38.7966 28.7432C37.645 28.7432 36.5875 28.5596 35.6248 28.1925C34.6617 27.8253 33.8142 27.3059 33.082 26.6337L32.4213 28.3026H27.3357V5H34.4948V12.1478C35.7504 11.4348 37.1845 11.0781 38.7966 11.0781C40.4916 11.0781 41.9722 11.4511 43.2382 12.1962C44.5051 12.9405 45.494 13.9744 46.2054 15.297C46.9176 16.62 47.2738 18.1633 47.2738 19.9265C47.2738 21.6688 46.9176 23.2067 46.2054 24.5393C45.494 25.8723 44.5051 26.9066 43.2382 27.6417C41.9722 28.376 40.4916 28.7432 38.7966 28.7432ZM34.3051 19.9265C34.3051 20.8289 34.5772 21.5582 35.1222 22.1144C35.6668 22.671 36.389 22.9488 37.2889 22.9488C38.1884 22.9488 38.9156 22.671 39.4706 22.1144C40.0252 21.5582 40.3027 20.8289 40.3027 19.9265C40.3027 19.0032 40.0252 18.2634 39.4706 17.7069C38.9156 17.1507 38.1884 16.8724 37.2889 16.8724C36.389 16.8724 35.6668 17.1507 35.1222 17.7069C34.5772 18.2634 34.3051 19.0032 34.3051 19.9265Z" fill="black"/>
<path d="M52.892 28.7115C50.9449 28.7115 49.406 28.2392 48.2756 27.2947C47.1461 26.3501 46.5815 25.0696 46.5815 23.4529C46.5815 21.9 47.0941 20.6567 48.1192 19.7229C49.1452 18.7884 50.5272 18.3211 52.2646 18.3211H57.6032V17.3131C57.6032 16.8925 57.4301 16.5412 57.0839 16.2583C56.7386 15.9746 56.3043 15.8328 55.7809 15.8328C55.2991 15.8328 54.891 15.9592 54.5561 16.2116C54.2208 16.4632 54.0327 16.7986 53.992 17.2179H47.397C47.6487 15.2032 48.4911 13.6762 49.9248 12.6369C51.3593 11.598 53.3217 11.0781 55.8125 11.0781C58.6382 11.0781 60.8041 11.7398 62.311 13.0624C63.8187 14.3842 64.5726 16.3046 64.5726 18.8234V28.3027H59.4553L58.7331 26.4769C57.2886 27.9668 55.3416 28.7115 52.892 28.7115ZM53.4262 22.9489C53.4262 23.3486 53.588 23.669 53.9121 23.9102C54.237 24.1517 54.6614 24.2723 55.1852 24.2723C55.9174 24.2723 56.5185 24.052 56.9891 23.6114C57.4605 23.17 57.6963 22.5817 57.6963 21.8474V21.6271H55.1852C54.6614 21.6271 54.237 21.7431 53.9121 21.9743C53.588 22.2046 53.4262 22.5296 53.4262 22.9489Z" fill="black"/>
<mask id="mask0_505_152" style="mask-type:luminance" maskUnits="userSpaceOnUse" x="65" y="22" width="7" height="7">
<path d="M65.7229 22.8059H71.4276V28.5268H65.7229V22.8059Z" fill="white"/>
</mask>
<g mask="url(#mask0_505_152)">
<mask id="mask1_505_152" style="mask-type:luminance" maskUnits="userSpaceOnUse" x="65" y="22" width="7" height="7">
<path d="M68.5752 22.8059C67.0001 22.8059 65.7229 24.0864 65.7229 25.6664C65.7229 27.246 67.0001 28.5268 68.5752 28.5268C70.1508 28.5268 71.4276 27.246 71.4276 25.6664C71.4276 24.0864 70.1508 22.8059 68.5752 22.8059Z" fill="white"/>
</mask>
<g mask="url(#mask1_505_152)">
<path d="M65.7229 22.8059H71.4276V28.5268H65.7229V22.8059Z" fill="#FFCE00"/>
</g>
</g>
</svg>
