<svg width="79" height="44" viewBox="0 0 79 44" fill="none" xmlns="http://www.w3.org/2000/svg">
<path d="M7.5 33.6621H10.4805V34.076H7.941V35.9468H10.2924V36.3523H7.941V38.325H10.5587V38.7389H7.5V33.6621Z" fill="black"/>
<path d="M11.5264 34.9899H11.8808L11.9158 35.7159C12.061 35.4501 12.2573 35.2469 12.5049 35.1068C12.7533 34.9666 13.0295 34.8965 13.3336 34.8965C13.8204 34.8965 14.2048 35.0563 14.4869 35.3755C14.7698 35.6938 14.9112 36.1239 14.9112 36.6655V38.7399H14.4902V36.7022C14.4902 36.2716 14.3812 35.9308 14.164 35.6792C13.9477 35.428 13.654 35.302 13.2837 35.302C13.0228 35.302 12.7911 35.365 12.5881 35.4906C12.3859 35.6166 12.2286 35.7918 12.1155 36.0163C12.0023 36.2412 11.9457 36.5011 11.9457 36.7957V38.7399H11.5264V34.9899Z" fill="black"/>
<path d="M16.0156 34.9905H16.4349V38.7404H16.0156V34.9905ZM15.8408 33.924C15.8408 33.8185 15.8758 33.7296 15.9457 33.657C16.0156 33.5836 16.1087 33.5469 16.2252 33.5469C16.3405 33.5469 16.4333 33.5836 16.5031 33.657C16.573 33.7296 16.608 33.8185 16.608 33.924C16.608 34.0354 16.573 34.1276 16.5031 34.2011C16.4333 34.2737 16.3405 34.3096 16.2252 34.3096C16.1087 34.3096 16.0156 34.2737 15.9457 34.2011C15.8758 34.1276 15.8408 34.0354 15.8408 33.924Z" fill="black"/>
<path d="M19.3242 33.6621H21.248C21.716 33.6621 22.0884 33.7819 22.3646 34.0209C22.6417 34.2604 22.7806 34.5808 22.7806 34.9822C22.7806 35.2571 22.7116 35.4941 22.5743 35.6931C22.4378 35.8913 22.2465 36.0336 22.0002 36.1204C22.2939 36.2072 22.5215 36.3586 22.6825 36.5743C22.8443 36.7892 22.9254 37.0491 22.9254 37.3537C22.9254 37.7788 22.7815 38.1159 22.4944 38.365C22.2082 38.6145 21.8192 38.7389 21.3278 38.7389H19.3242V33.6621ZM21.3129 38.325C21.6798 38.325 21.9656 38.2382 22.1699 38.0646C22.375 37.8902 22.4778 37.6482 22.4778 37.3387C22.4778 37.0249 22.3738 36.7825 22.1666 36.611C21.959 36.4387 21.6673 36.3523 21.2912 36.3523H19.7652V38.325H21.3129ZM21.233 35.9468C21.58 35.9468 21.8504 35.8646 22.0434 35.6998C22.2365 35.5354 22.333 35.3055 22.333 35.0106C22.333 34.7202 22.2365 34.4924 22.0434 34.3263C21.8504 34.1594 21.5829 34.076 21.2413 34.076H19.7652V35.9468H21.233Z" fill="black"/>
<path d="M23.8359 34.9902H24.1904L24.2337 35.8314C24.3589 35.5468 24.5336 35.3353 24.7579 35.1972C24.9817 35.0595 25.2646 34.9902 25.6066 34.9902H25.9178V35.3824H25.5933C25.1739 35.3824 24.8461 35.5168 24.6098 35.7846C24.3735 36.0529 24.2553 36.463 24.2553 37.0146V38.7402H23.8359V34.9902Z" fill="black"/>
<path d="M27.5372 38.7983C27.1032 38.7983 26.7592 38.6982 26.5054 38.4979C26.2525 38.2968 26.126 38.024 26.126 37.6802C26.126 37.3477 26.2412 37.0836 26.4721 36.8875C26.7038 36.6918 27.013 36.5937 27.399 36.5937H29.0482V36.325C29.0482 36.0105 28.9434 35.7589 28.7337 35.5707C28.524 35.3817 28.2453 35.287 27.8983 35.287C27.6187 35.287 27.3749 35.3538 27.1677 35.4873C26.9601 35.6199 26.8183 35.8002 26.7417 36.028H26.314C26.406 35.68 26.5928 35.4047 26.8748 35.2019C27.1565 34.9983 27.4956 34.8965 27.8916 34.8965C28.1999 34.8965 28.4732 34.9561 28.7121 35.0751C28.9504 35.1931 29.1356 35.3583 29.2679 35.5707C29.401 35.7835 29.4676 36.0276 29.4676 36.3034V38.7399H29.1198L29.0765 38.0941C28.9134 38.321 28.6992 38.4954 28.4341 38.6164C28.1687 38.7378 27.87 38.7983 27.5372 38.7983ZM26.5453 37.6735C26.5453 37.9005 26.6356 38.082 26.8166 38.2176C26.9972 38.3536 27.2418 38.4212 27.5505 38.4212C27.8355 38.4212 28.0922 38.3657 28.321 38.2543C28.5506 38.1433 28.7304 37.9885 28.8602 37.7903C28.99 37.5913 29.0549 37.3689 29.0549 37.1228V36.9626H27.414C27.1577 36.9626 26.9485 37.0285 26.7866 37.1595C26.6256 37.2897 26.5453 37.4611 26.5453 37.6735Z" fill="black"/>
<path d="M30.5723 34.9899H30.9267L30.9617 35.7159C31.1069 35.4501 31.3032 35.2469 31.5508 35.1068C31.7992 34.9666 32.0754 34.8965 32.3795 34.8965C32.8663 34.8965 33.2507 35.0563 33.5328 35.3755C33.8157 35.6938 33.9571 36.1239 33.9571 36.6655V38.7399H33.5361V36.7022C33.5361 36.2716 33.4271 35.9308 33.2099 35.6792C32.9936 35.428 32.6999 35.302 32.3296 35.302C32.0687 35.302 31.837 35.365 31.634 35.4906C31.4318 35.6166 31.2745 35.7918 31.1614 36.0163C31.0482 36.2412 30.9916 36.5011 30.9916 36.7957V38.7399H30.5723V34.9899Z" fill="black"/>
<path d="M36.6515 38.8336C36.2795 38.8336 35.948 38.7489 35.6563 38.58C35.3643 38.411 35.1375 38.1769 34.9757 37.8774C34.8147 37.577 34.7344 37.2382 34.7344 36.861C34.7344 36.4838 34.8147 36.1467 34.9757 35.8497C35.1375 35.5526 35.3643 35.3198 35.6563 35.1504C35.948 34.9814 36.2795 34.8967 36.6515 34.8967C36.9885 34.8967 37.293 34.9668 37.5651 35.107C37.838 35.2472 38.0585 35.4404 38.2274 35.6861V33.373H38.6468V38.7402H38.3006L38.249 38.0009C38.0847 38.2612 37.8638 38.4656 37.5867 38.6133C37.3105 38.7602 36.9984 38.8336 36.6515 38.8336ZM35.1537 36.861C35.1537 37.166 35.2186 37.4368 35.3484 37.6738C35.4791 37.9107 35.6613 38.096 35.8943 38.2295C36.1281 38.3622 36.3973 38.4281 36.7014 38.4281C37.0009 38.4281 37.2672 38.3622 37.5002 38.2295C37.734 38.096 37.9162 37.9107 38.046 37.6738C38.1767 37.4368 38.2424 37.166 38.2424 36.861C38.2424 36.5619 38.1767 36.2936 38.046 36.0566C37.9162 35.8196 37.734 35.6352 37.5002 35.5025C37.2672 35.369 37.0009 35.3023 36.7014 35.3023C36.3973 35.3023 36.1281 35.369 35.8943 35.5025C35.6613 35.6352 35.4791 35.8196 35.3484 36.0566C35.2186 36.2936 35.1537 36.5619 35.1537 36.861Z" fill="black"/>
<path d="M42.8234 33.6621H43.2427L45.3396 38.7389H44.8769L44.3494 37.4622H41.7167L41.1959 38.7389H40.7266L42.8234 33.6621ZM44.183 37.0566L43.0331 34.2646L41.8898 37.0566H44.183Z" fill="black"/>
<path d="M45.9453 34.9902H46.2998L46.343 35.8314C46.4683 35.5468 46.643 35.3353 46.8672 35.1972C47.0911 35.0595 47.374 34.9902 47.716 34.9902H48.0272V35.3824H47.7026C47.2833 35.3824 46.9554 35.5168 46.7191 35.7846C46.4828 36.0529 46.3647 36.463 46.3647 37.0146V38.7402H45.9453V34.9902Z" fill="black"/>
<path d="M50.0728 38.8334C49.7021 38.8334 49.3722 38.7487 49.0827 38.5797C48.7931 38.4107 48.5672 38.1775 48.4054 37.8804C48.2444 37.5834 48.1641 37.2438 48.1641 36.8608C48.1641 36.4794 48.2444 36.1398 48.4054 35.8427C48.5672 35.5448 48.7931 35.3129 49.0827 35.1468C49.3722 34.9799 49.7021 34.8965 50.0728 34.8965C50.5163 34.8965 50.907 35.0191 51.2444 35.2636C51.5826 35.5073 51.8044 35.8323 51.91 36.2383H51.484C51.363 35.9437 51.1782 35.7138 50.9299 35.549C50.6823 35.3846 50.3965 35.302 50.0728 35.302C49.7841 35.302 49.5262 35.3679 49.299 35.499C49.0727 35.6291 48.8967 35.8127 48.7715 36.0497C48.6458 36.2867 48.5834 36.557 48.5834 36.8608C48.5834 37.1657 48.6458 37.4365 48.7715 37.6735C48.8967 37.9105 49.0727 38.0957 49.299 38.2292C49.5262 38.3619 49.7841 38.4278 50.0728 38.4278C50.4156 38.4278 50.7135 38.339 50.9665 38.1608C51.2194 37.9818 51.3992 37.7369 51.5057 37.4265H51.9467C51.821 37.8671 51.5922 38.2121 51.2594 38.4612C50.9265 38.7095 50.5309 38.8334 50.0728 38.8334Z" fill="black"/>
<path d="M52.7832 33.373H53.2026V35.6728C53.3465 35.4216 53.5412 35.2297 53.7867 35.097C54.033 34.9635 54.3059 34.8967 54.6054 34.8967C55.0868 34.8967 55.4675 35.0544 55.747 35.369C56.0274 35.6828 56.1681 36.11 56.1681 36.6507V38.7402H55.747V36.6874C55.747 36.2569 55.6397 35.9189 55.4259 35.6728C55.2116 35.4258 54.9187 35.3023 54.5472 35.3023C54.2863 35.3023 54.0534 35.364 53.8483 35.4875C53.644 35.611 53.4855 35.7854 53.3723 36.0099C53.2591 36.2348 53.2026 36.4947 53.2026 36.7892V38.7402H52.7832V33.373Z" fill="black"/>
<path d="M57.2714 34.9905H57.6908V38.7404H57.2714V34.9905ZM57.0967 33.924C57.0967 33.8185 57.1316 33.7296 57.2015 33.657C57.2714 33.5836 57.3646 33.5469 57.4811 33.5469C57.5963 33.5469 57.6891 33.5836 57.759 33.657C57.8289 33.7296 57.8638 33.8185 57.8638 33.924C57.8638 34.0354 57.8289 34.1276 57.759 34.2011C57.6891 34.2737 57.5963 34.3096 57.4811 34.3096C57.3646 34.3096 57.2714 34.2737 57.2015 34.2011C57.1316 34.1276 57.0967 34.0354 57.0967 33.924Z" fill="black"/>
<path d="M60.394 38.7396C59.9946 38.7396 59.6909 38.6302 59.4838 38.4108C59.2762 38.1905 59.1726 37.8676 59.1726 37.4412V35.3734H58.3555V34.9896H58.8331C58.9729 34.9896 59.0686 34.9671 59.121 34.9212C59.1742 34.8757 59.2079 34.7826 59.2225 34.6425L59.2591 34.0684H59.5919V34.9896H60.8866V35.3734H59.5919V37.4262C59.5919 37.7366 59.6577 37.966 59.79 38.1137C59.9231 38.2606 60.1294 38.334 60.409 38.334H60.9366V38.7396H60.394Z" fill="black"/>
<path d="M63.1549 38.8334C62.7788 38.8334 62.4459 38.7504 62.1564 38.5847C61.8677 38.4178 61.6438 38.1859 61.4841 37.8888C61.3251 37.5909 61.2461 37.2479 61.2461 36.8608C61.2461 36.4794 61.3264 36.1398 61.4874 35.8427C61.6492 35.5448 61.8751 35.3129 62.1647 35.1468C62.4543 34.9799 62.7871 34.8965 63.1632 34.8965C63.548 34.8965 63.8875 34.9862 64.1816 35.1652C64.4766 35.3433 64.7013 35.5949 64.8556 35.9195C65.0095 36.2433 65.0819 36.6154 65.072 37.036H61.6721C61.7108 37.4611 61.8639 37.8003 62.1314 38.054C62.3998 38.3077 62.7409 38.4345 63.1549 38.4345C63.4586 38.4345 63.7261 38.3673 63.957 38.2326C64.1887 38.097 64.3672 37.9084 64.4928 37.6668L64.9638 37.6735C64.8194 38.0319 64.5869 38.3152 64.2665 38.523C63.9457 38.7299 63.5751 38.8334 63.1549 38.8334ZM64.6592 36.6655C64.6114 36.2408 64.4521 35.9062 64.1816 35.6625C63.912 35.418 63.5726 35.2953 63.1632 35.2953C62.748 35.2953 62.4052 35.4201 62.1347 35.6692C61.8652 35.9174 61.7108 36.2495 61.6721 36.6655H64.6592Z" fill="black"/>
<path d="M67.4986 38.8334C67.1279 38.8334 66.798 38.7487 66.5084 38.5797C66.2189 38.4107 65.993 38.1775 65.8311 37.8804C65.6701 37.5834 65.5898 37.2438 65.5898 36.8608C65.5898 36.4794 65.6701 36.1398 65.8311 35.8427C65.993 35.5448 66.2189 35.3129 66.5084 35.1468C66.798 34.9799 67.1279 34.8965 67.4986 34.8965C67.9421 34.8965 68.3328 35.0191 68.6702 35.2636C69.0084 35.5073 69.2302 35.8323 69.3358 36.2383H68.9098C68.7887 35.9437 68.604 35.7138 68.3556 35.549C68.1081 35.3846 67.8223 35.302 67.4986 35.302C67.2099 35.302 66.9519 35.3679 66.7248 35.499C66.4985 35.6291 66.3225 35.8127 66.1973 36.0497C66.0716 36.2867 66.0092 36.557 66.0092 36.8608C66.0092 37.1657 66.0716 37.4365 66.1973 37.6735C66.3225 37.9105 66.4985 38.0957 66.7248 38.2292C66.9519 38.3619 67.2099 38.4278 67.4986 38.4278C67.8414 38.4278 68.1393 38.339 68.3923 38.1608C68.6452 37.9818 68.8249 37.7369 68.9314 37.4265H69.3724C69.2468 37.8671 69.018 38.2121 68.6851 38.4612C68.3523 38.7095 67.9567 38.8334 67.4986 38.8334Z" fill="black"/>
<path d="M71.604 38.7396C71.2046 38.7396 70.9009 38.6302 70.6937 38.4108C70.4861 38.1905 70.3825 37.8676 70.3825 37.4412V35.3734H69.5654V34.9896H70.043C70.1828 34.9896 70.2785 34.9671 70.3309 34.9212C70.3842 34.8757 70.4179 34.7826 70.4324 34.6425L70.4691 34.0684H70.8019V34.9896H72.0966V35.3734H70.8019V37.4262C70.8019 37.7366 70.8676 37.966 70.9999 38.1137C71.1331 38.2606 71.3394 38.334 71.619 38.334H72.1465V38.7396H71.604Z" fill="black"/>
<path d="M18.0724 28.775C16.1661 28.775 14.4862 28.402 13.0317 27.6568C11.5772 26.9116 10.4415 25.8724 9.6252 24.5393C8.80852 23.2067 8.40039 21.6689 8.40039 19.9265C8.40039 18.1634 8.81351 16.6201 9.64018 15.2971C10.4677 13.9745 11.6138 12.9406 13.0783 12.1963C14.5436 11.4511 16.2289 11.0781 18.134 11.0781C20.2274 11.0781 22.0172 11.5087 23.5041 12.3698C24.9906 13.2301 26.1156 14.4372 26.879 15.9913C27.6433 17.5446 27.9628 19.3704 27.8376 21.4686H15.3399C15.5283 22.2463 15.8894 22.8187 16.4232 23.1859C16.9566 23.553 17.5798 23.7366 18.292 23.7366C18.8146 23.7366 19.3009 23.6477 19.7515 23.4696C20.2016 23.2906 20.5628 23.0436 20.8349 22.7286H27.5547C26.8632 24.639 25.6858 26.1244 24.0217 27.1845C22.3575 28.2451 20.3743 28.775 18.0724 28.775ZM15.3715 18.1625H21.1178C20.9081 17.4908 20.5624 16.9709 20.081 16.6038C19.5992 16.2366 18.9927 16.0531 18.2604 16.0531C17.5482 16.0531 16.9408 16.2266 16.4382 16.5738C15.9356 16.92 15.5799 17.4495 15.3715 18.1625Z" fill="black"/>
<path d="M39.2969 28.7432C38.1453 28.7432 37.0877 28.5596 36.125 28.1925C35.1619 27.8253 34.3144 27.3059 33.5822 26.6337L32.9216 28.3026H27.8359V5H34.9951V12.1478C36.2507 11.4348 37.6847 11.0781 39.2969 11.0781C40.9918 11.0781 42.4725 11.4511 43.7385 12.1962C45.0053 12.9405 45.9942 13.9744 46.7056 15.297C47.4179 16.62 47.774 18.1633 47.774 19.9265C47.774 21.6688 47.4179 23.2067 46.7056 24.5393C45.9942 25.8723 45.0053 26.9066 43.7385 27.6417C42.4725 28.376 40.9918 28.7432 39.2969 28.7432ZM34.8054 19.9265C34.8054 20.8289 35.0774 21.5582 35.6225 22.1144C36.167 22.671 36.8893 22.9488 37.7892 22.9488C38.6886 22.9488 39.4159 22.671 39.9709 22.1144C40.5254 21.5582 40.8029 20.8289 40.8029 19.9265C40.8029 19.0032 40.5254 18.2634 39.9709 17.7069C39.4159 17.1507 38.6886 16.8724 37.7892 16.8724C36.8893 16.8724 36.167 17.1507 35.6225 17.7069C35.0774 18.2634 34.8054 19.0032 34.8054 19.9265Z" fill="black"/>
<path d="M53.3925 28.7115C51.4454 28.7115 49.9065 28.2392 48.7761 27.2947C47.6466 26.3501 47.082 25.0696 47.082 23.4529C47.082 21.9 47.5946 20.6567 48.6197 19.7229C49.6456 18.7884 51.0277 18.3211 52.7651 18.3211H58.1036V17.3131C58.1036 16.8925 57.9306 16.5412 57.5844 16.2583C57.2391 15.9746 56.8048 15.8328 56.2814 15.8328C55.7996 15.8328 55.3915 15.9592 55.0566 16.2116C54.7213 16.4632 54.5332 16.7986 54.4925 17.2179H47.8975C48.1492 15.2032 48.9916 13.6762 50.4253 12.6369C51.8598 11.598 53.8222 11.0781 56.313 11.0781C59.1387 11.0781 61.3046 11.7398 62.8115 13.0624C64.3192 14.3842 65.0731 16.3046 65.0731 18.8234V28.3027H59.9558L59.2336 26.4769C57.7891 27.9668 55.8421 28.7115 53.3925 28.7115ZM53.9266 22.9489C53.9266 23.3486 54.0885 23.669 54.4126 23.9102C54.7375 24.1517 55.1619 24.2723 55.6856 24.2723C56.4179 24.2723 57.019 24.052 57.4896 23.6114C57.9609 23.17 58.1968 22.5817 58.1968 21.8474V21.6271H55.6856C55.1619 21.6271 54.7375 21.7431 54.4126 21.9743C54.0885 22.2046 53.9266 22.5296 53.9266 22.9489Z" fill="black"/>
<mask id="mask0_502_88982" style="mask-type:luminance" maskUnits="userSpaceOnUse" x="66" y="22" width="6" height="7">
<path d="M66.2227 22.8066H71.9273V28.5276H66.2227V22.8066Z" fill="white"/>
</mask>
<g mask="url(#mask0_502_88982)">
<mask id="mask1_502_88982" style="mask-type:luminance" maskUnits="userSpaceOnUse" x="66" y="22" width="6" height="7">
<path d="M69.075 22.8066C67.4999 22.8066 66.2227 24.0871 66.2227 25.6671C66.2227 27.2467 67.4999 28.5276 69.075 28.5276C70.6505 28.5276 71.9273 27.2467 71.9273 25.6671C71.9273 24.0871 70.6505 22.8066 69.075 22.8066Z" fill="white"/>
</mask>
<g mask="url(#mask1_502_88982)">
<path d="M66.2227 22.8066H71.9273V28.5276H66.2227V22.8066Z" fill="#FFCE00"/>
</g>
</g>
</svg>
