<svg width="279" height="157" viewBox="0 0 279 157" fill="none" xmlns="http://www.w3.org/2000/svg">
<path d="M80.9998 103.682H86.4217V104.433H81.802V107.828H86.0796V108.564H81.802V112.144H86.564V112.895H80.9998V103.682Z" fill="black"/>
<path d="M88.325 106.09H88.9698L89.0333 107.407C89.2975 106.925 89.6547 106.556 90.105 106.302C90.5569 106.047 91.0594 105.92 91.6126 105.92C92.4981 105.92 93.1975 106.21 93.7106 106.789C94.2252 107.367 94.4826 108.148 94.4826 109.13V112.895H93.7167V109.197C93.7167 108.416 93.5184 107.797 93.1233 107.341C92.7297 106.885 92.1954 106.656 91.5218 106.656C91.0473 106.656 90.6257 106.77 90.2564 106.998C89.8886 107.227 89.6025 107.545 89.3966 107.952C89.1908 108.36 89.0878 108.832 89.0878 109.367V112.895H88.325V106.09Z" fill="black"/>
<path d="M96.4904 106.09H97.2533V112.895H96.4904V106.09ZM96.1725 104.155C96.1725 103.963 96.2361 103.802 96.3633 103.67C96.4904 103.537 96.6599 103.47 96.8719 103.47C97.0815 103.47 97.2503 103.537 97.3774 103.67C97.5046 103.802 97.5682 103.963 97.5682 104.155C97.5682 104.357 97.5046 104.524 97.3774 104.657C97.2503 104.789 97.0815 104.854 96.8719 104.854C96.6599 104.854 96.4904 104.789 96.3633 104.657C96.2361 104.524 96.1725 104.357 96.1725 104.155Z" fill="black"/>
<path d="M102.511 103.682H106.01C106.862 103.682 107.539 103.899 108.042 104.333C108.546 104.768 108.799 105.349 108.799 106.078C108.799 106.577 108.673 107.007 108.423 107.368C108.175 107.727 107.827 107.986 107.379 108.143C107.913 108.301 108.327 108.575 108.62 108.967C108.914 109.357 109.062 109.829 109.062 110.381C109.062 111.153 108.8 111.765 108.278 112.217C107.757 112.669 107.049 112.895 106.156 112.895H102.511V103.682ZM106.128 112.144C106.796 112.144 107.316 111.986 107.688 111.671C108.061 111.355 108.248 110.916 108.248 110.354C108.248 109.785 108.058 109.345 107.681 109.034C107.304 108.721 106.773 108.564 106.089 108.564H103.313V112.144H106.128ZM105.983 107.828C106.614 107.828 107.106 107.679 107.457 107.38C107.809 107.082 107.984 106.664 107.984 106.129C107.984 105.602 107.809 105.189 107.457 104.887C107.106 104.585 106.62 104.433 105.998 104.433H103.313V107.828H105.983Z" fill="black"/>
<path d="M110.717 106.09H111.362L111.441 107.616C111.668 107.1 111.986 106.716 112.394 106.465C112.801 106.215 113.316 106.09 113.938 106.09H114.504V106.801H113.914C113.151 106.801 112.555 107.045 112.125 107.531C111.695 108.018 111.48 108.762 111.48 109.763V112.895H110.717V106.09Z" fill="black"/>
<path d="M117.45 113.001C116.66 113.001 116.035 112.819 115.573 112.456C115.113 112.091 114.883 111.596 114.883 110.972C114.883 110.368 115.092 109.889 115.512 109.533C115.934 109.178 116.496 109 117.199 109H120.199V108.513C120.199 107.942 120.008 107.485 119.627 107.144C119.245 106.801 118.738 106.629 118.107 106.629C117.598 106.629 117.155 106.75 116.778 106.992C116.4 107.233 116.142 107.56 116.003 107.974H115.225C115.392 107.342 115.732 106.842 116.245 106.474C116.757 106.105 117.374 105.92 118.095 105.92C118.656 105.92 119.153 106.028 119.587 106.244C120.021 106.459 120.358 106.758 120.598 107.144C120.841 107.53 120.962 107.973 120.962 108.473V112.895H120.329L120.25 111.723C119.953 112.135 119.564 112.451 119.082 112.671C118.599 112.891 118.055 113.001 117.45 113.001ZM115.646 110.96C115.646 111.372 115.81 111.701 116.139 111.947C116.468 112.194 116.913 112.316 117.474 112.316C117.993 112.316 118.459 112.216 118.876 112.014C119.294 111.812 119.62 111.531 119.857 111.172C120.093 110.811 120.211 110.407 120.211 109.96V109.67H117.226C116.76 109.67 116.379 109.789 116.085 110.027C115.792 110.263 115.646 110.574 115.646 110.96Z" fill="black"/>
<path d="M122.971 106.09H123.616L123.68 107.407C123.944 106.925 124.301 106.556 124.751 106.302C125.203 106.047 125.706 105.92 126.259 105.92C127.144 105.92 127.844 106.21 128.357 106.789C128.872 107.367 129.129 108.148 129.129 109.13V112.895H128.363V109.197C128.363 108.416 128.165 107.797 127.77 107.341C127.376 106.885 126.842 106.656 126.168 106.656C125.694 106.656 125.272 106.77 124.903 106.998C124.535 107.227 124.249 107.545 124.043 107.952C123.837 108.36 123.734 108.832 123.734 109.367V112.895H122.971V106.09Z" fill="black"/>
<path d="M134.031 113.065C133.354 113.065 132.751 112.911 132.22 112.604C131.689 112.298 131.277 111.873 130.982 111.329C130.689 110.784 130.543 110.169 130.543 109.485C130.543 108.8 130.689 108.189 130.982 107.649C131.277 107.11 131.689 106.688 132.22 106.38C132.751 106.074 133.354 105.92 134.031 105.92C134.644 105.92 135.198 106.047 135.693 106.302C136.189 106.556 136.59 106.907 136.898 107.353V103.155H137.661V112.895H137.031L136.937 111.553C136.638 112.026 136.236 112.397 135.732 112.665C135.23 112.931 134.662 113.065 134.031 113.065ZM131.306 109.485C131.306 110.038 131.424 110.53 131.66 110.96C131.898 111.39 132.23 111.726 132.653 111.968C133.079 112.209 133.568 112.329 134.122 112.329C134.667 112.329 135.151 112.209 135.575 111.968C136 111.726 136.332 111.39 136.568 110.96C136.805 110.53 136.925 110.038 136.925 109.485C136.925 108.942 136.805 108.455 136.568 108.025C136.332 107.595 136 107.26 135.575 107.02C135.151 106.777 134.667 106.656 134.122 106.656C133.568 106.656 133.079 106.777 132.653 107.02C132.23 107.26 131.898 107.595 131.66 108.025C131.424 108.455 131.306 108.942 131.306 109.485Z" fill="black"/>
<path d="M145.259 103.682H146.022L149.836 112.895H148.995L148.035 110.578H143.246L142.298 112.895H141.444L145.259 103.682ZM147.732 109.842L145.64 104.775L143.561 109.842H147.732Z" fill="black"/>
<path d="M150.939 106.09H151.583L151.662 107.616C151.89 107.1 152.208 106.716 152.616 106.465C153.023 106.215 153.538 106.09 154.16 106.09H154.726V106.801H154.135C153.373 106.801 152.776 107.045 152.346 107.531C151.916 108.018 151.701 108.762 151.701 109.763V112.895H150.939V106.09Z" fill="black"/>
<path d="M158.446 113.065C157.771 113.065 157.171 112.911 156.644 112.604C156.117 112.298 155.707 111.874 155.412 111.335C155.119 110.796 154.973 110.18 154.973 109.485C154.973 108.793 155.119 108.176 155.412 107.637C155.707 107.097 156.117 106.676 156.644 106.374C157.171 106.072 157.771 105.92 158.446 105.92C159.252 105.92 159.963 106.143 160.577 106.586C161.192 107.029 161.595 107.618 161.788 108.355H161.013C160.792 107.821 160.456 107.403 160.005 107.104C159.554 106.806 159.034 106.656 158.446 106.656C157.92 106.656 157.451 106.776 157.038 107.013C156.626 107.25 156.306 107.583 156.078 108.013C155.85 108.443 155.736 108.934 155.736 109.485C155.736 110.038 155.85 110.53 156.078 110.96C156.306 111.39 156.626 111.726 157.038 111.968C157.451 112.209 157.92 112.329 158.446 112.329C159.069 112.329 159.611 112.167 160.071 111.844C160.531 111.519 160.858 111.075 161.052 110.511H161.854C161.626 111.311 161.209 111.937 160.604 112.389C159.999 112.84 159.279 113.065 158.446 113.065Z" fill="black"/>
<path d="M163.377 103.155H164.14V107.328C164.402 106.873 164.756 106.524 165.202 106.284C165.65 106.041 166.147 105.92 166.692 105.92C167.568 105.92 168.26 106.206 168.769 106.777C169.279 107.347 169.535 108.122 169.535 109.103V112.895H168.769V109.17C168.769 108.388 168.573 107.775 168.184 107.328C167.795 106.88 167.262 106.656 166.586 106.656C166.111 106.656 165.688 106.768 165.314 106.992C164.943 107.216 164.654 107.533 164.449 107.94C164.243 108.348 164.14 108.82 164.14 109.355V112.895H163.377V103.155Z" fill="black"/>
<path d="M171.542 106.09H172.305V112.895H171.542V106.09ZM171.225 104.155C171.225 103.963 171.288 103.802 171.415 103.67C171.542 103.537 171.712 103.47 171.924 103.47C172.134 103.47 172.302 103.537 172.429 103.67C172.557 103.802 172.62 103.963 172.62 104.155C172.62 104.357 172.557 104.524 172.429 104.657C172.302 104.789 172.134 104.854 171.924 104.854C171.712 104.854 171.542 104.789 171.415 104.657C171.288 104.524 171.225 104.357 171.225 104.155Z" fill="black"/>
<path d="M177.222 112.895C176.496 112.895 175.943 112.697 175.566 112.298C175.189 111.899 175 111.312 175 110.539V106.786H173.514V106.09H174.383C174.637 106.09 174.811 106.049 174.906 105.966C175.003 105.883 175.064 105.714 175.091 105.46L175.158 104.418H175.763V106.09H178.118V106.786H175.763V110.511C175.763 111.075 175.883 111.491 176.123 111.759C176.365 112.026 176.741 112.159 177.249 112.159H178.209V112.895H177.222Z" fill="black"/>
<path d="M182.244 113.065C181.56 113.065 180.955 112.914 180.428 112.613C179.903 112.31 179.496 111.889 179.205 111.35C178.916 110.81 178.772 110.187 178.772 109.485C178.772 108.793 178.918 108.176 179.211 107.637C179.505 107.097 179.916 106.676 180.443 106.374C180.97 106.072 181.575 105.92 182.259 105.92C182.96 105.92 183.577 106.083 184.112 106.408C184.649 106.731 185.057 107.188 185.338 107.777C185.618 108.364 185.75 109.04 185.732 109.803H179.547C179.617 110.574 179.896 111.19 180.383 111.65C180.871 112.111 181.491 112.341 182.244 112.341C182.797 112.341 183.283 112.219 183.704 111.974C184.125 111.728 184.45 111.386 184.678 110.948L185.535 110.96C185.272 111.61 184.849 112.124 184.267 112.501C183.683 112.877 183.009 113.065 182.244 113.065ZM184.981 109.13C184.894 108.36 184.604 107.752 184.112 107.31C183.622 106.867 183.004 106.644 182.259 106.644C181.504 106.644 180.881 106.87 180.389 107.322C179.898 107.773 179.617 108.376 179.547 109.13H184.981Z" fill="black"/>
<path d="M190.147 113.065C189.472 113.065 188.872 112.911 188.346 112.604C187.819 112.298 187.408 111.874 187.113 111.335C186.821 110.796 186.674 110.18 186.674 109.485C186.674 108.793 186.821 108.176 187.113 107.637C187.408 107.097 187.819 106.676 188.346 106.374C188.872 106.072 189.472 105.92 190.147 105.92C190.954 105.92 191.664 106.143 192.278 106.586C192.893 107.029 193.297 107.618 193.489 108.355H192.714C192.494 107.821 192.158 107.403 191.706 107.104C191.256 106.806 190.736 106.656 190.147 106.656C189.622 106.656 189.152 106.776 188.739 107.013C188.327 107.25 188.007 107.583 187.779 108.013C187.551 108.443 187.437 108.934 187.437 109.485C187.437 110.038 187.551 110.53 187.779 110.96C188.007 111.39 188.327 111.726 188.739 111.968C189.152 112.209 189.622 112.329 190.147 112.329C190.77 112.329 191.312 112.167 191.772 111.844C192.233 111.519 192.56 111.075 192.753 110.511H193.556C193.327 111.311 192.911 111.937 192.305 112.389C191.7 112.84 190.98 113.065 190.147 113.065Z" fill="black"/>
<path d="M197.616 112.895C196.889 112.895 196.337 112.697 195.96 112.298C195.582 111.899 195.394 111.312 195.394 110.539V106.786H193.907V106.09H194.776C195.03 106.09 195.204 106.049 195.3 105.966C195.397 105.883 195.458 105.714 195.484 105.46L195.551 104.418H196.156V106.09H198.512V106.786H196.156V110.511C196.156 111.075 196.276 111.491 196.517 111.759C196.759 112.026 197.134 112.159 197.643 112.159H198.603V112.895H197.616Z" fill="black"/>
<path d="M100.233 94.8115C96.7652 94.8115 93.7091 94.1346 91.0632 92.7823C88.4173 91.4301 86.3512 89.5441 84.8662 87.125C83.3806 84.7067 82.6381 81.9159 82.6381 78.7541C82.6381 75.5544 83.3897 72.7538 84.8935 70.3529C86.3988 67.9528 88.4839 66.0766 91.148 64.7258C93.8136 63.3736 96.8795 62.6967 100.345 62.6967C104.153 62.6967 107.409 63.4781 110.114 65.0408C112.818 66.602 114.865 68.7924 116.254 71.6128C117.644 74.4316 118.225 77.7448 117.997 81.5525H95.2621C95.605 82.9638 96.2619 84.0026 97.2329 84.6688C98.2032 85.3351 99.337 85.6683 100.633 85.6683C101.583 85.6683 102.468 85.507 103.288 85.1837C104.107 84.8589 104.763 84.4107 105.258 83.839H117.483C116.225 87.306 114.083 90.0014 111.056 91.9252C108.028 93.8499 104.421 94.8115 100.233 94.8115ZM95.3197 75.5529H105.773C105.392 74.3339 104.763 73.3905 103.887 72.7242C103.011 72.058 101.907 71.7248 100.575 71.7248C99.2794 71.7248 98.1745 72.0398 97.2602 72.6697C96.3459 73.2982 95.6988 74.259 95.3197 75.5529Z" fill="black"/>
<path d="M138.843 94.7539C136.748 94.7539 134.824 94.4208 133.073 93.7545C131.321 93.0882 129.779 92.1456 128.447 90.9258L127.245 93.9544H117.994V51.6667H131.017V64.638C133.301 63.3441 135.91 62.6967 138.843 62.6967C141.926 62.6967 144.62 63.3736 146.923 64.7259C149.227 66.0766 151.026 67.9528 152.321 70.3529C153.616 72.7538 154.264 75.5544 154.264 78.7541C154.264 81.9159 153.616 84.7067 152.321 87.125C151.026 89.5441 149.227 91.421 146.923 92.7551C144.62 94.0876 141.926 94.7539 138.843 94.7539ZM130.672 78.7541C130.672 80.3918 131.167 81.7153 132.158 82.7245C133.149 83.7345 134.463 84.2388 136.1 84.2388C137.736 84.2388 139.059 83.7345 140.069 82.7245C141.078 81.7153 141.583 80.3918 141.583 78.7541C141.583 77.0786 141.078 75.7361 140.069 74.7261C139.059 73.7169 137.736 73.2118 136.1 73.2118C134.463 73.2118 133.149 73.7169 132.158 74.7261C131.167 75.7361 130.672 77.0786 130.672 78.7541Z" fill="black"/>
<path d="M164.485 94.6964C160.943 94.6964 158.143 93.8393 156.087 92.1251C154.032 90.411 153.005 88.0873 153.005 85.1534C153.005 82.3353 153.937 80.0791 155.802 78.3846C157.669 76.6886 160.183 75.8406 163.343 75.8406H173.055V74.0114C173.055 73.2482 172.74 72.6107 172.111 72.0973C171.482 71.5825 170.692 71.3251 169.74 71.3251C168.864 71.3251 168.121 71.5545 167.512 72.0125C166.902 72.4691 166.56 73.0778 166.486 73.8387H154.488C154.946 70.1825 156.479 67.4114 159.087 65.5254C161.696 63.6401 165.266 62.6967 169.798 62.6967C174.938 62.6967 178.878 63.8975 181.619 66.2977C184.362 68.6963 185.734 72.1814 185.734 76.7522V93.9544H176.424L175.111 90.6411C172.483 93.3449 168.941 94.6964 164.485 94.6964ZM165.456 84.2388C165.456 84.9641 165.751 85.5456 166.34 85.9832C166.931 86.4216 167.703 86.6404 168.656 86.6404C169.988 86.6404 171.082 86.2407 171.938 85.4411C172.795 84.6401 173.225 83.5725 173.225 82.2399V81.8402H168.656C167.703 81.8402 166.931 82.0507 166.34 82.4701C165.751 82.8881 165.456 83.4779 165.456 84.2388Z" fill="black"/>
<mask id="mask0_39_921" style="mask-type:luminance" maskUnits="userSpaceOnUse" x="187" y="83" width="12" height="12">
<path d="M187.826 83.9794H198.204V94.3613H187.826V83.9794Z" fill="white"/>
</mask>
<g mask="url(#mask0_39_921)">
<mask id="mask1_39_921" style="mask-type:luminance" maskUnits="userSpaceOnUse" x="187" y="83" width="12" height="12">
<path d="M193.015 83.9794C190.15 83.9794 187.826 86.3031 187.826 89.1703C187.826 92.0369 190.15 94.3613 193.015 94.3613C195.881 94.3613 198.204 92.0369 198.204 89.1703C198.204 86.3031 195.881 83.9794 193.015 83.9794Z" fill="white"/>
</mask>
<g mask="url(#mask1_39_921)">
<path d="M187.826 83.9794H198.204V94.3613H187.826V83.9794Z" fill="#FFCE00"/>
</g>
</g>
</svg>
